<?xml version="1.0" encoding="UTF-8"?>
<svg id="_レイヤー_2" data-name="レイヤー 2" xmlns="http://www.w3.org/2000/svg" xmlns:xlink="http://www.w3.org/1999/xlink" viewBox="0 0 755.06 367.99">
  <defs>
    <style>
      .cls-1 {
        fill: #0000cd;
      }

      .cls-1, .cls-2, .cls-3, .cls-4 {
        stroke-width: 0px;
      }

      .cls-5 {
        clip-path: url(#clippath-2);
      }

      .cls-6 {
        clip-path: url(#clippath-6);
      }

      .cls-2 {
        fill: none;
      }

      .cls-7 {
        filter: url(#drop-shadow-1);
      }

      .cls-8 {
        clip-path: url(#clippath-7);
      }

      .cls-9 {
        clip-path: url(#clippath-1);
      }

      .cls-10 {
        clip-path: url(#clippath-4);
      }

      .cls-3 {
        fill: url(#_空);
      }

      .cls-11 {
        filter: url(#drop-shadow-2);
      }

      .cls-12 {
        clip-path: url(#clippath);
      }

      .cls-13 {
        clip-path: url(#clippath-3);
      }

      .cls-14 {
        clip-path: url(#clippath-8);
      }

      .cls-15 {
        clip-path: url(#clippath-5);
      }

      .cls-4 {
        fill: blue;
      }
    </style>
    <clipPath id="clippath">
      <path class="cls-2" d="m567.39,322.9c-.82-2.27-1.83-4.11-3.01-5.45l-.82-.34c-8.4.6-17.1,1.03-25.86,1.27l-.92.7-9.5,29.63.95,1.3c1.28,0,2.55.01,3.83.01,1.91,0,3.82,0,5.73-.03,7.71-.08,15.28-.27,22.5-.58l.71-.34c4.8-5.42,7.29-10.99,7.84-17.5.23-2.46-.25-5.38-1.43-8.68Z"/>
    </clipPath>
    <filter id="drop-shadow-1" filterUnits="userSpaceOnUse">
      <feOffset dx="4" dy="4"/>
      <feGaussianBlur result="blur" stdDeviation="0"/>
      <feFlood flood-color="#fff" flood-opacity="1"/>
      <feComposite in2="blur" operator="in"/>
      <feComposite in="SourceGraphic"/>
    </filter>
    <linearGradient id="_空" data-name="空" x1="721.75" y1="347.56" x2="17.66" y2="70.58" gradientUnits="userSpaceOnUse">
      <stop offset="0" stop-color="#cce0f4"/>
      <stop offset=".06" stop-color="#c2dcf2"/>
      <stop offset=".17" stop-color="#a9d2ee"/>
      <stop offset=".31" stop-color="#7fc2e7"/>
      <stop offset=".46" stop-color="#46abdd"/>
      <stop offset=".57" stop-color="#1e9cd7"/>
      <stop offset=".87" stop-color="#0075be"/>
      <stop offset=".99" stop-color="#005b97"/>
    </linearGradient>
    <clipPath id="clippath-1">
      <path class="cls-2" d="m292.91,87.83c-1.79,1.31-3.62,2.58-5.5,3.76-.59.36-1.19.71-1.79,1.06l-.82.48-.26.6c3.44.31,6.88.64,10.31,1,12.91,1.37,25.78,3.05,38.62,5,3.14-2.04,6.13-4.14,8.9-6.27l.14-.41c-15.64-1.96-31.31-3.65-47.01-5.01-.86-.07-1.72-.14-2.58-.21Z"/>
    </clipPath>
    <clipPath id="clippath-2">
      <path class="cls-2" d="m256.98,284.87c-7.6-2-15.18-4.1-22.73-6.29l-6.35,17.96c6.95,2.34,13.94,4.59,20.94,6.76,3.13-7.01,5.87-13.2,8.15-18.43Z"/>
    </clipPath>
    <clipPath id="clippath-3">
      <path class="cls-2" d="m517.41,340.59c0-1,.17-2.01.55-3.09l6.63-18.87c-2.88.03-5.76.05-8.64.05-8.27,0-16.73-.13-25.14-.38-.33-.01-1.24-.05-2.02-.08-.89,2.94-1.56,5.77-1.96,8.13-.27,1.46-.41,2.92-.41,4.39,0,.65.04,1.33.09,2.04h-21.91l5.47-15.38-.89-.04c-.55-.03-1.09-.05-1.64-.08-9.09-.55-16.48-1.06-23.27-1.6-2.76-.22-5.52-.47-8.28-.72l-5.41,15.15c-.48,1.34-.79,2.63-.97,3.86h-21.67l7.51-21.05c-6.54-.71-12.32-1.39-17.65-2.07-4.47-.55-9.26-1.19-14.97-1.98l-8.9,25.1c-.09.28-.16.54-.24.81,7.27,1.32,13.89,2.46,20.19,3.47,15.39,2.47,31.4,4.65,47.6,6.48,13.86,1.57,28.44,2.83,43.37,3.77.92-.32,1.82-.7,2.7-1.15.9-.46,1.72-.98,2.49-1.55.53,1.1,1.12,2.14,1.77,3.11,9.71.52,18.69.85,27.36,1.02-1.21-3.17-1.76-6.62-1.76-9.32Z"/>
    </clipPath>
    <clipPath id="clippath-4">
      <path class="cls-2" d="m289.01,291.7c-8.77-2-17.47-4.11-25.9-6.27.1.74.16,1.51.16,2.33,0,3.14-.7,6.78-2.11,10.93-.85,2.49-2.3,5.19-4.34,8.1,7.7,2.31,15.67,4.6,23.7,6.81,5.06-6.81,7.88-14.11,8.49-21.89Z"/>
    </clipPath>
    <clipPath id="clippath-5">
      <path class="cls-2" d="m255.67,92.66l2.96-8.29c-15.38-.86-29.66-1.31-43.6-1.37l-2.28,8.56h2.14c13.4,0,27.11.37,40.77,1.1Z"/>
    </clipPath>
    <clipPath id="clippath-6">
      <path class="cls-2" d="m292.91,87.83c-1.79,1.31-3.62,2.58-5.5,3.76-.59.36-1.19.71-1.79,1.06l-.82.48-.26.6c3.44.31,6.88.64,10.31,1,12.91,1.37,25.78,3.05,38.62,5,3.14-2.04,6.13-4.14,8.9-6.27l.14-.41c-15.64-1.96-31.31-3.65-47.01-5.01-.86-.07-1.72-.14-2.58-.21Z"/>
    </clipPath>
    <clipPath id="clippath-7">
      <path class="cls-2" d="m256.98,284.87c-7.6-2-15.18-4.1-22.73-6.29l-6.35,17.96c6.95,2.34,13.94,4.59,20.94,6.76,3.13-7.01,5.87-13.2,8.15-18.43Z"/>
    </clipPath>
    <filter id="drop-shadow-2" filterUnits="userSpaceOnUse">
      <feOffset dx="4" dy="4"/>
      <feGaussianBlur result="blur-2" stdDeviation="0"/>
      <feFlood flood-color="#fff" flood-opacity="1"/>
      <feComposite in2="blur-2" operator="in"/>
      <feComposite in="SourceGraphic"/>
    </filter>
    <clipPath id="clippath-8">
      <path class="cls-2" d="m24.04,81.98v269.05h700.82V81.98H24.04Zm190.86,9.58h-2.14s2.28-8.56,2.28-8.56c13.94.06,28.22.51,43.6,1.37l-2.96,8.29c-13.66-.73-27.37-1.11-40.77-1.11Zm65.62,222.04c-8.03-2.21-16-4.49-23.7-6.81,2.04-2.91,3.49-5.61,4.34-8.1,1.41-4.14,2.11-7.78,2.11-10.93,0-.82-.06-1.59-.16-2.33,8.43,2.16,17.13,4.27,25.9,6.27-.61,7.79-3.43,15.09-8.49,21.89Zm238.65,36.32c-8.67-.16-17.65-.5-27.36-1.02-.64-.97-1.23-2.01-1.77-3.11-.77.56-1.59,1.09-2.49,1.55-.88.45-1.78.83-2.7,1.15-14.93-.93-29.51-2.2-43.37-3.77-16.19-1.83-32.21-4.01-47.6-6.48-6.3-1.01-12.92-2.15-20.19-3.47.08-.27.15-.53.24-.81l8.9-25.1c5.71.8,10.5,1.43,14.97,1.98,5.33.68,11.12,1.36,17.65,2.07l-7.51,21.05h21.67c.18-1.23.49-2.52.97-3.86l5.41-15.15c2.76.25,5.52.49,8.28.72,6.79.54,14.18,1.05,23.27,1.6.54.03,1.09.06,1.64.08l.89.04-5.47,15.38h21.91c-.05-.7-.09-1.39-.09-2.04,0-1.46.14-2.92.41-4.39.41-2.35,1.07-5.18,1.96-8.13.78.03,1.69.07,2.02.08,8.42.25,16.88.38,25.14.38,2.88,0,5.76-.02,8.64-.05l-6.63,18.87c-.38,1.08-.55,2.09-.55,3.09,0,2.7.55,6.15,1.76,9.32Z"/>
    </clipPath>
  </defs>
  <g id="_レイヤー_1-2" data-name="レイヤー 1">
    <path class="cls-2" d="m537.78,349c5.22-.05,10.45-.16,15.69-.33,7.27-6.8,10.7-13.16,11.36-21.09.23-2.46-.25-5.38-1.43-8.68-.09-.26-.19-.51-.29-.76-8.59.61-17.21,1.02-25.86,1.25-.19,0-.38,0-.57.01l-9.48,29.6c3.53.02,7.06.02,10.59-.01Z"/>
    <g>
      <g class="cls-12">
        <g class="cls-7">
          <path class="cls-1" d="m370.44,42.59c0,25.16-17.38,46.75-52.15,64.77-23.21,12.16-50.83,21.38-82.88,27.67l-53.17,198.44c-1.67,6.25-6.12,11.38-12.06,13.93l-28.77,12.33L224.13,48.82l41.87-.24-21.93,61.33c16.49-3.74,31.11-9.56,43.86-17.47,17.77-11.14,26.99-24.1,27.67-38.89.42-9.52-2.76-15.77-9.56-18.74-4.08-1.79-11.43-2.68-22.06-2.68h-130.31L173.56,0h131.33c19.21,0,33.87,2.38,43.99,7.14,14.36,6.72,21.55,18.53,21.55,35.45Z"/>
          <path class="cls-1" d="m400.78,144.91c-2.45,9.81-9.81,14.72-22.08,14.72h-57.59c2.02,1.35,3.68,3.82,4.97,7.41s1.81,6.7,1.56,9.34c-.86,10.24-5.37,18.28-13.52,24.1-7.79,5.58-17.91,8.4-30.36,8.46-14.47.12-25.6-2.73-33.39-8.56-6.93-5.15-10.39-11.93-10.39-20.33,0-1.66.15-3.31.46-4.97,1.6-9.26,6.19-16.53,13.8-21.8,8.1-5.58,18.89-8.37,32.38-8.37h114.16Zm-100.27,14.72h-21.07l-8.28,23.55c-.43,1.23-.64,2.39-.64,3.5,0,5.28,4.91,7.91,14.72,7.91,1.16,0,2.18-.03,3.04-.09l12.23-34.87Z"/>
          <path class="cls-1" d="m460.64,211.18c0,3.99,51.92,6.95,48.04,10.37-4.26,3.76-62.67,3.75-66.77,3.32h-32.76c-8.67,0-13-3.59-13-10.78,0-1.82.37-3.79,1.11-5.9l9.67-27.8h-18.22l-9.5,24.55c-1.6,4.16-7.03,23.89-12.34,23.89h-14.55l18.67-48.44c-3.54-.8-6.4-2.58-8.6-5.35-2.19-2.77-3.29-5.95-3.29-9.54,0-6.56,3.05-11.63,9.15-15.23,5.08-2.97,11.12-4.45,18.14-4.45h13.86l-7.19,20.87h47.31l-15.57,44.48h35.84Z"/>
          <path class="cls-1" d="m526.54,208.46c-2.12,8.67-4.33,13.08-23.94,16.63h-41.43c-4.38-3.64-8.39-6.45-8.39-12.08,0-1.41.3-2.92.89-4.55l10.32-29.24h-13.32l5.12-13c9.48-2.44,16.52-5.55,21.12-9.34,5.2-4.28,10.75-12.02,16.65-23.23h15.84l-11.45,32.57h20.96c-3.36,8.66-10.18,13-20.47,13h-5.36l-10.15,29.24h43.62Z"/>
          <path class="cls-1" d="m353.27,248.84c-1.73,8.66-8.72,13-20.96,13h-54.02c4.98,4.6,7.26,12.7,6.82,24.29-.54,13.7-7.85,25.91-21.93,36.64-12.67,9.69-24.83,14.38-36.47,14.05-2.22-.05-4.57-.44-6.31-2.11-1.73-1.68-2.22-4.17-2.22-6.5,0-.92.19-1.87.57-2.84l20.55-58.08c-2.76-.76-5.09-2.22-6.99-4.39-2.17-2.38-3.25-5.12-3.25-8.2,0-1.9.43-3.84,1.3-5.85h15.27l15.19-42.73h29.24l-17.95,42.73h81.15Zm-92.12,49.83c1.41-4.14,2.11-7.78,2.11-10.93,0-4.44-1.44-7.77-4.31-9.99-4.44,10.4-11.37,25.99-20.8,46.79,4.39-2.27,8.99-6.17,13.81-11.7,4.71-5.31,7.77-10.03,9.18-14.17Z"/>
          <path class="cls-1" d="m433.11,248.13c-2.17,8.66-8.66,13-19.5,13h-50.85c1.79,1.19,3.25,3.37,4.39,6.54,1.14,3.17,1.6,5.92,1.38,8.24-.76,9.04-4.74,16.14-11.94,21.28-6.88,4.93-15.81,7.42-26.81,7.47-12.78.11-22.61-2.41-29.49-7.55-6.12-4.55-9.18-10.53-9.18-17.95,0-1.46.14-2.92.41-4.39,1.41-8.18,5.47-14.59,12.19-19.25,7.15-4.93,16.68-7.39,28.59-7.39h100.81Zm-88.54,13h-18.6l-7.31,20.8c-.38,1.08-.57,2.11-.57,3.09,0,4.66,4.33,6.99,13,6.99,1.03,0,1.92-.03,2.68-.08l10.8-30.79Z"/>
          <path class="cls-1" d="m436.64,333.95c-1.35,4.77-4.47,8.29-9.34,10.56-3.41,1.62-7.07,2.44-10.97,2.44h-31.27c-8.01,0-12.02-2.73-12.02-8.2,0-1.41.3-3.01.89-4.79l30.14-84.97h28.75l-30.3,84.97h34.12Z"/>
          <path class="cls-1" d="m492.32,332.77c-1.41,4.77-4.33,8.29-8.77,10.56-3.2,1.62-6.66,2.44-10.4,2.44h-32.09c-7.74,0-11.62-3.25-11.62-9.75,0-1.84.38-3.82,1.14-5.93l14.13-39.56h29.49l-15.03,42.24h33.14Zm-5.85-75.54c0,5.42-2.1,10.02-6.3,13.81-4.2,3.79-9.25,5.69-15.15,5.69s-11.12-1.9-15.31-5.69c-4.2-3.79-6.3-8.39-6.3-13.81s2.1-9.94,6.3-13.73c4.2-3.79,9.3-5.69,15.31-5.69s10.95,1.9,15.15,5.69c4.2,3.79,6.3,8.37,6.3,13.73Z"/>
          <path class="cls-1" d="m628.41,292.59c-2.17,8.66-8.66,20.11-19.5,20.11h-50.85c1.79,1.19,3.25,3.37,4.39,6.54,1.14,3.17,1.6,5.92,1.38,8.24-.76,9.04-5.36,15.36-11.94,21.28-5.48,4.93-14.49,13.93-25.48,13.93-20,0-16,0-30-9-6.41-4.12-9.99-15.55-9.99-22.97,0-1.46.14-2.92.41-4.39,1.41-8.18,5.87-22.1,12.59-26.76,7.15-4.93,15.09-9,27-9l102,2Zm-88.54,20.11h-18.6l-7.31,20.8c-.38,1.08-.55,2.09-.55,3.09,0,6.7,3.34,18.11,12,18.11,1.03,0,.24.06,1,0l13.46-42Z"/>
        </g>
        <path class="cls-3" d="m690.97,271.25c.39-2.11.43-4.28.1-6.63-.33-2.34-1.05-4.85-2.12-7.45-1.06-2.6-2.51-5.27-4.25-7.93-1.73-2.65-3.68-5.32-5.86-7.93-4.38-5.2-9.46-10.22-14.97-14.95-5.48-4.77-11.32-9.34-17.44-13.65-3.06-2.16-6.16-4.28-9.33-6.34-1.57-1.05-3.15-2.08-4.76-3.09-1.59-1.03-3.2-2.04-4.82-3.02-6.47-4-13.12-7.78-19.84-11.48-13.46-7.39-27.35-14.21-41.48-20.64-28.26-12.86-57.51-24.03-87.3-33.74-29.78-9.76-60.16-17.94-90.89-24.64-30.74-6.65-61.86-11.69-93.16-15.02-31.3-3.29-62.81-4.63-94.24-4.04-15.71.28-31.4,1.22-47,2.87-15.58,1.67-31.1,4.01-46.25,7.64-7.58,1.81-15.06,3.95-22.35,6.51-7.3,2.54-14.39,5.57-21.07,9.18-6.63,3.66-12.9,7.95-17.87,13.24-4.99,5.24-8.59,11.47-9.74,18.17-1.16,6.7.14,13.7,3.04,20.23,1.44,3.27,3.27,6.44,5.36,9.47,2.09,3.03,4.39,5.96,6.88,8.77,5.01,5.6,10.59,10.79,16.54,15.6,5.94,4.83,12.19,9.33,18.67,13.54,25.95,16.84,54.44,29.96,83.51,41.22,29.12,11.24,59.02,20.55,89.27,28.43,30.26,7.88,60.9,14.27,91.71,19.46,15.41,2.58,30.86,4.88,46.35,6.79,15.48,1.97,30.99,3.58,46.52,4.83,7.76.62,15.53,1.13,23.29,1.6,7.76.44,15.53.79,23.29,1.04,15.52.46,31.03.52,46.47.1,15.44-.42,30.83-1.38,46.03-3.06,15.2-1.62,30.26-3.95,44.8-7.37,7.27-1.7,14.38-3.73,21.23-6.09,6.87-2.33,13.43-5.09,19.42-8.28,5.92-3.22,11.35-6.91,15.24-10.97,1.95-2.02,3.54-4.1,4.7-6.16,1.16-2.07,1.91-4.11,2.31-6.22Zm31.04,5.83c-1.07,5.66-3.16,11.1-5.89,15.89-2.73,4.81-6.06,9-9.6,12.64-3.55,3.65-7.34,6.75-11.2,9.46-3.87,2.72-7.81,5.11-11.79,7.23-7.96,4.2-16.04,7.5-24.14,10.22-8.1,2.72-16.23,4.9-24.36,6.71-32.51,7.18-65,9.45-97.26,9.77-16.14.17-32.22-.33-48.26-1.23-16.03-.93-32.01-2.25-47.93-4.05-15.91-1.8-31.77-3.94-47.55-6.48-15.78-2.53-31.49-5.47-47.13-8.67-31.26-6.51-62.23-14.35-92.76-23.63-30.53-9.3-60.64-20.03-89.98-32.75-14.67-6.35-29.13-13.23-43.26-20.79-14.14-7.54-27.98-15.75-41.18-25.05-6.59-4.65-13.02-9.6-19.17-14.93-6.16-5.32-12.01-11.09-17.34-17.44-2.65-3.19-5.14-6.55-7.41-10.1-2.28-3.54-4.31-7.31-5.93-11.32-1.64-4-2.87-8.24-3.46-12.66-.59-4.41-.5-8.98.38-13.4.89-4.42,2.55-8.66,4.78-12.47,2.22-3.82,4.97-7.23,7.99-10.26,3.02-3.04,6.31-5.69,9.74-8.04,3.44-2.35,6.98-4.49,10.61-6.38,7.28-3.77,14.83-6.8,22.49-9.31,7.66-2.52,15.42-4.59,23.24-6.3,31.29-6.84,63.14-9.11,94.85-9.68,31.74-.52,63.43,1.22,95,3.97,31.58,2.74,63.04,6.79,94.38,11.75,62.63,10.11,125.09,23.79,185.53,45.9,7.54,2.8,15.06,5.69,22.51,8.8,7.45,3.12,14.85,6.4,22.2,9.87,7.35,3.46,14.6,7.19,21.79,11.12,1.8.97,3.59,1.98,5.37,3,1.79,1,3.57,2.05,5.34,3.1,3.54,2.1,7.04,4.32,10.52,6.59,13.89,9.12,27.4,19.43,39.31,32.91,5.89,6.81,11.45,14.43,15.48,23.8,2.01,4.67,3.58,9.78,4.38,15.25.81,5.46.78,11.29-.28,16.95Z"/>
        <g class="cls-9">
          <g>
            <g>
              <path class="cls-4" d="m370.44,42.59c0,25.16-17.38,46.75-52.15,64.77-23.21,12.16-50.83,21.38-82.88,27.67l-53.17,198.44c-1.67,6.25-6.12,11.38-12.06,13.93l-28.77,12.33L224.13,48.82l41.87-.24-21.93,61.33c16.49-3.74,31.11-9.56,43.86-17.47,17.77-11.14,26.99-24.1,27.67-38.89.42-9.52-2.76-15.77-9.56-18.74-4.08-1.79-11.43-2.68-22.06-2.68h-130.31L173.56,0h131.33c19.21,0,33.87,2.38,43.99,7.14,14.36,6.72,21.55,18.53,21.55,35.45Z"/>
              <path class="cls-4" d="m400.78,144.91c-2.45,9.81-9.81,14.72-22.08,14.72h-57.59c2.02,1.35,3.68,3.82,4.97,7.41s1.81,6.7,1.56,9.34c-.86,10.24-5.37,18.28-13.52,24.1-7.79,5.58-17.91,8.4-30.36,8.46-14.47.12-25.6-2.73-33.39-8.56-6.93-5.15-10.39-11.93-10.39-20.33,0-1.66.15-3.31.46-4.97,1.6-9.26,6.19-16.53,13.8-21.8,8.1-5.58,18.89-8.37,32.38-8.37h114.16Zm-100.27,14.72h-21.07l-8.28,23.55c-.43,1.23-.64,2.39-.64,3.5,0,5.28,4.91,7.91,14.72,7.91,1.16,0,2.18-.03,3.04-.09l12.23-34.87Z"/>
              <path class="cls-4" d="m460.64,211.18c0,3.99,51.92,6.95,48.04,10.37-4.26,3.76-62.67,3.75-66.77,3.32h-32.76c-8.67,0-13-3.59-13-10.78,0-1.82.37-3.79,1.11-5.9l9.67-27.8h-18.22l-9.5,24.55c-1.6,4.16-7.03,23.89-12.34,23.89h-14.55l18.67-48.44c-3.54-.8-6.4-2.58-8.6-5.35-2.19-2.77-3.29-5.95-3.29-9.54,0-6.56,3.05-11.63,9.15-15.23,5.08-2.97,11.12-4.45,18.14-4.45h13.86l-7.19,20.87h47.31l-15.57,44.48h35.84Z"/>
              <path class="cls-4" d="m526.54,208.46c-2.12,8.67-4.33,13.08-23.94,16.63h-41.43c-4.38-3.64-8.39-6.45-8.39-12.08,0-1.41.3-2.92.89-4.55l10.32-29.24h-13.32l5.12-13c9.48-2.44,16.52-5.55,21.12-9.34,5.2-4.28,10.75-12.02,16.65-23.23h15.84l-11.45,32.57h20.96c-3.36,8.66-10.18,13-20.47,13h-5.36l-10.15,29.24h43.62Z"/>
              <path class="cls-4" d="m353.27,248.84c-1.73,8.66-8.72,13-20.96,13h-54.02c4.98,4.6,7.26,12.7,6.82,24.29-.54,13.7-7.85,25.91-21.93,36.64-12.67,9.69-24.83,14.38-36.47,14.05-2.22-.05-4.57-.44-6.31-2.11-1.73-1.68-2.22-4.17-2.22-6.5,0-.92.19-1.87.57-2.84l20.55-58.08c-2.76-.76-5.09-2.22-6.99-4.39-2.17-2.38-3.25-5.12-3.25-8.2,0-1.9.43-3.84,1.3-5.85h15.27l15.19-42.73h29.24l-17.95,42.73h81.15Zm-92.12,49.83c1.41-4.14,2.11-7.78,2.11-10.93,0-4.44-1.44-7.77-4.31-9.99-4.44,10.4-11.37,25.99-20.8,46.79,4.39-2.27,8.99-6.17,13.81-11.7,4.71-5.31,7.77-10.03,9.18-14.17Z"/>
              <path class="cls-4" d="m433.11,248.13c-2.17,8.66-8.66,13-19.5,13h-50.85c1.79,1.19,3.25,3.37,4.39,6.54,1.14,3.17,1.6,5.92,1.38,8.24-.76,9.04-4.74,16.14-11.94,21.28-6.88,4.93-15.81,7.42-26.81,7.47-12.78.11-22.61-2.41-29.49-7.55-6.12-4.55-9.18-10.53-9.18-17.95,0-1.46.14-2.92.41-4.39,1.41-8.18,5.47-14.59,12.19-19.25,7.15-4.93,16.68-7.39,28.59-7.39h100.81Zm-88.54,13h-18.6l-7.31,20.8c-.38,1.08-.57,2.11-.57,3.09,0,4.66,4.33,6.99,13,6.99,1.03,0,1.92-.03,2.68-.08l10.8-30.79Z"/>
              <path class="cls-4" d="m436.64,333.95c-1.35,4.77-4.47,8.29-9.34,10.56-3.41,1.62-7.07,2.44-10.97,2.44h-31.27c-8.01,0-12.02-2.73-12.02-8.2,0-1.41.3-3.01.89-4.79l30.14-84.97h28.75l-30.3,84.97h34.12Z"/>
              <path class="cls-4" d="m492.32,332.77c-1.41,4.77-4.33,8.29-8.77,10.56-3.2,1.62-6.66,2.44-10.4,2.44h-32.09c-7.74,0-11.62-3.25-11.62-9.75,0-1.84.38-3.82,1.14-5.93l14.13-39.56h29.49l-15.03,42.24h33.14Zm-5.85-75.54c0,5.42-2.1,10.02-6.3,13.81-4.2,3.79-9.25,5.69-15.15,5.69s-11.12-1.9-15.31-5.69c-4.2-3.79-6.3-8.39-6.3-13.81s2.1-9.94,6.3-13.73c4.2-3.79,9.3-5.69,15.31-5.69s10.95,1.9,15.15,5.69c4.2,3.79,6.3,8.37,6.3,13.73Z"/>
              <path class="cls-4" d="m628.41,292.59c-2.17,8.66-8.66,20.11-19.5,20.11h-50.85c1.79,1.19,3.25,3.37,4.39,6.54,1.14,3.17,1.6,5.92,1.38,8.24-.76,9.04-5.36,15.36-11.94,21.28-5.48,4.93-14.49,13.93-25.48,13.93-20,0-16,0-30-9-6.41-4.12-9.99-15.55-9.99-22.97,0-1.46.14-2.92.41-4.39,1.41-8.18,5.87-22.1,12.59-26.76,7.15-4.93,15.09-9,27-9l102,2Zm-88.54,20.11h-18.6l-7.31,20.8c-.38,1.08-.55,2.09-.55,3.09,0,6.7,3.34,18.11,12,18.11,1.03,0,.24.06,1,0l13.46-42Z"/>
            </g>
            <g>
              <path class="cls-1" d="m370.44,42.59c0,25.16-17.38,46.75-52.15,64.77-23.21,12.16-50.83,21.38-82.88,27.67l-53.17,198.44c-1.67,6.25-6.12,11.38-12.06,13.93l-28.77,12.33L224.13,48.82l41.87-.24-21.93,61.33c16.49-3.74,31.11-9.56,43.86-17.47,17.77-11.14,26.99-24.1,27.67-38.89.42-9.52-2.76-15.77-9.56-18.74-4.08-1.79-11.43-2.68-22.06-2.68h-130.31L173.56,0h131.33c19.21,0,33.87,2.38,43.99,7.14,14.36,6.72,21.55,18.53,21.55,35.45Z"/>
              <path class="cls-1" d="m400.78,144.91c-2.45,9.81-9.81,14.72-22.08,14.72h-57.59c2.02,1.35,3.68,3.82,4.97,7.41s1.81,6.7,1.56,9.34c-.86,10.24-5.37,18.28-13.52,24.1-7.79,5.58-17.91,8.4-30.36,8.46-14.47.12-25.6-2.73-33.39-8.56-6.93-5.15-10.39-11.93-10.39-20.33,0-1.66.15-3.31.46-4.97,1.6-9.26,6.19-16.53,13.8-21.8,8.1-5.58,18.89-8.37,32.38-8.37h114.16Zm-100.27,14.72h-21.07l-8.28,23.55c-.43,1.23-.64,2.39-.64,3.5,0,5.28,4.91,7.91,14.72,7.91,1.16,0,2.18-.03,3.04-.09l12.23-34.87Z"/>
              <path class="cls-1" d="m460.64,211.18c0,3.99,51.92,6.95,48.04,10.37-4.26,3.76-62.67,3.75-66.77,3.32h-32.76c-8.67,0-13-3.59-13-10.78,0-1.82.37-3.79,1.11-5.9l9.67-27.8h-18.22l-9.5,24.55c-1.6,4.16-7.03,23.89-12.34,23.89h-14.55l18.67-48.44c-3.54-.8-6.4-2.58-8.6-5.35-2.19-2.77-3.29-5.95-3.29-9.54,0-6.56,3.05-11.63,9.15-15.23,5.08-2.97,11.12-4.45,18.14-4.45h13.86l-7.19,20.87h47.31l-15.57,44.48h35.84Z"/>
              <path class="cls-1" d="m526.54,208.46c-2.12,8.67-4.33,13.08-23.94,16.63h-41.43c-4.38-3.64-8.39-6.45-8.39-12.08,0-1.41.3-2.92.89-4.55l10.32-29.24h-13.32l5.12-13c9.48-2.44,16.52-5.55,21.12-9.34,5.2-4.28,10.75-12.02,16.65-23.23h15.84l-11.45,32.57h20.96c-3.36,8.66-10.18,13-20.47,13h-5.36l-10.15,29.24h43.62Z"/>
              <path class="cls-1" d="m353.27,248.84c-1.73,8.66-8.72,13-20.96,13h-54.02c4.98,4.6,7.26,12.7,6.82,24.29-.54,13.7-7.85,25.91-21.93,36.64-12.67,9.69-24.83,14.38-36.47,14.05-2.22-.05-4.57-.44-6.31-2.11-1.73-1.68-2.22-4.17-2.22-6.5,0-.92.19-1.87.57-2.84l20.55-58.08c-2.76-.76-5.09-2.22-6.99-4.39-2.17-2.38-3.25-5.12-3.25-8.2,0-1.9.43-3.84,1.3-5.85h15.27l15.19-42.73h29.24l-17.95,42.73h81.15Zm-92.12,49.83c1.41-4.14,2.11-7.78,2.11-10.93,0-4.44-1.44-7.77-4.31-9.99-4.44,10.4-11.37,25.99-20.8,46.79,4.39-2.27,8.99-6.17,13.81-11.7,4.71-5.31,7.77-10.03,9.18-14.17Z"/>
              <path class="cls-1" d="m433.11,248.13c-2.17,8.66-8.66,13-19.5,13h-50.85c1.79,1.19,3.25,3.37,4.39,6.54,1.14,3.17,1.6,5.92,1.38,8.24-.76,9.04-4.74,16.14-11.94,21.28-6.88,4.93-15.81,7.42-26.81,7.47-12.78.11-22.61-2.41-29.49-7.55-6.12-4.55-9.18-10.53-9.18-17.95,0-1.46.14-2.92.41-4.39,1.41-8.18,5.47-14.59,12.19-19.25,7.15-4.93,16.68-7.39,28.59-7.39h100.81Zm-88.54,13h-18.6l-7.31,20.8c-.38,1.08-.57,2.11-.57,3.09,0,4.66,4.33,6.99,13,6.99,1.03,0,1.92-.03,2.68-.08l10.8-30.79Z"/>
              <path class="cls-1" d="m436.64,333.95c-1.35,4.77-4.47,8.29-9.34,10.56-3.41,1.62-7.07,2.44-10.97,2.44h-31.27c-8.01,0-12.02-2.73-12.02-8.2,0-1.41.3-3.01.89-4.79l30.14-84.97h28.75l-30.3,84.97h34.12Z"/>
              <path class="cls-1" d="m492.32,332.77c-1.41,4.77-4.33,8.29-8.77,10.56-3.2,1.62-6.66,2.44-10.4,2.44h-32.09c-7.74,0-11.62-3.25-11.62-9.75,0-1.84.38-3.82,1.14-5.93l14.13-39.56h29.49l-15.03,42.24h33.14Zm-5.85-75.54c0,5.42-2.1,10.02-6.3,13.81-4.2,3.79-9.25,5.69-15.15,5.69s-11.12-1.9-15.31-5.69c-4.2-3.79-6.3-8.39-6.3-13.81s2.1-9.94,6.3-13.73c4.2-3.79,9.3-5.69,15.31-5.69s10.95,1.9,15.15,5.69c4.2,3.79,6.3,8.37,6.3,13.73Z"/>
              <path class="cls-1" d="m628.41,292.59c-2.17,8.66-8.66,20.11-19.5,20.11h-50.85c1.79,1.19,3.25,3.37,4.39,6.54,1.14,3.17,1.6,5.92,1.38,8.24-.76,9.04-5.36,15.36-11.94,21.28-5.48,4.93-14.49,13.93-25.48,13.93-20,0-16,0-30-9-6.41-4.12-9.99-15.55-9.99-22.97,0-1.46.14-2.92.41-4.39,1.41-8.18,5.87-22.1,12.59-26.76,7.15-4.93,15.09-9,27-9l102,2Zm-88.54,20.11h-18.6l-7.31,20.8c-.38,1.08-.55,2.09-.55,3.09,0,6.7,3.34,18.11,12,18.11,1.03,0,.24.06,1,0l13.46-42Z"/>
            </g>
          </g>
        </g>
        <g class="cls-5">
          <g>
            <g>
              <path class="cls-4" d="m370.44,42.59c0,25.16-17.38,46.75-52.15,64.77-23.21,12.16-50.83,21.38-82.88,27.67l-53.17,198.44c-1.67,6.25-6.12,11.38-12.06,13.93l-28.77,12.33L224.13,48.82l41.87-.24-21.93,61.33c16.49-3.74,31.11-9.56,43.86-17.47,17.77-11.14,26.99-24.1,27.67-38.89.42-9.52-2.76-15.77-9.56-18.74-4.08-1.79-11.43-2.68-22.06-2.68h-130.31L173.56,0h131.33c19.21,0,33.87,2.38,43.99,7.14,14.36,6.72,21.55,18.53,21.55,35.45Z"/>
              <path class="cls-4" d="m400.78,144.91c-2.45,9.81-9.81,14.72-22.08,14.72h-57.59c2.02,1.35,3.68,3.82,4.97,7.41s1.81,6.7,1.56,9.34c-.86,10.24-5.37,18.28-13.52,24.1-7.79,5.58-17.91,8.4-30.36,8.46-14.47.12-25.6-2.73-33.39-8.56-6.93-5.15-10.39-11.93-10.39-20.33,0-1.66.15-3.31.46-4.97,1.6-9.26,6.19-16.53,13.8-21.8,8.1-5.58,18.89-8.37,32.38-8.37h114.16Zm-100.27,14.72h-21.07l-8.28,23.55c-.43,1.23-.64,2.39-.64,3.5,0,5.28,4.91,7.91,14.72,7.91,1.16,0,2.18-.03,3.04-.09l12.23-34.87Z"/>
              <path class="cls-4" d="m460.64,211.18c0,3.99,51.92,6.95,48.04,10.37-4.26,3.76-62.67,3.75-66.77,3.32h-32.76c-8.67,0-13-3.59-13-10.78,0-1.82.37-3.79,1.11-5.9l9.67-27.8h-18.22l-9.5,24.55c-1.6,4.16-7.03,23.89-12.34,23.89h-14.55l18.67-48.44c-3.54-.8-6.4-2.58-8.6-5.35-2.19-2.77-3.29-5.95-3.29-9.54,0-6.56,3.05-11.63,9.15-15.23,5.08-2.97,11.12-4.45,18.14-4.45h13.86l-7.19,20.87h47.31l-15.57,44.48h35.84Z"/>
              <path class="cls-4" d="m526.54,208.46c-2.12,8.67-4.33,13.08-23.94,16.63h-41.43c-4.38-3.64-8.39-6.45-8.39-12.08,0-1.41.3-2.92.89-4.55l10.32-29.24h-13.32l5.12-13c9.48-2.44,16.52-5.55,21.12-9.34,5.2-4.28,10.75-12.02,16.65-23.23h15.84l-11.45,32.57h20.96c-3.36,8.66-10.18,13-20.47,13h-5.36l-10.15,29.24h43.62Z"/>
              <path class="cls-4" d="m353.27,248.84c-1.73,8.66-8.72,13-20.96,13h-54.02c4.98,4.6,7.26,12.7,6.82,24.29-.54,13.7-7.85,25.91-21.93,36.64-12.67,9.69-24.83,14.38-36.47,14.05-2.22-.05-4.57-.44-6.31-2.11-1.73-1.68-2.22-4.17-2.22-6.5,0-.92.19-1.87.57-2.84l20.55-58.08c-2.76-.76-5.09-2.22-6.99-4.39-2.17-2.38-3.25-5.12-3.25-8.2,0-1.9.43-3.84,1.3-5.85h15.27l15.19-42.73h29.24l-17.95,42.73h81.15Zm-92.12,49.83c1.41-4.14,2.11-7.78,2.11-10.93,0-4.44-1.44-7.77-4.31-9.99-4.44,10.4-11.37,25.99-20.8,46.79,4.39-2.27,8.99-6.17,13.81-11.7,4.71-5.31,7.77-10.03,9.18-14.17Z"/>
              <path class="cls-4" d="m433.11,248.13c-2.17,8.66-8.66,13-19.5,13h-50.85c1.79,1.19,3.25,3.37,4.39,6.54,1.14,3.17,1.6,5.92,1.38,8.24-.76,9.04-4.74,16.14-11.94,21.28-6.88,4.93-15.81,7.42-26.81,7.47-12.78.11-22.61-2.41-29.49-7.55-6.12-4.55-9.18-10.53-9.18-17.95,0-1.46.14-2.92.41-4.39,1.41-8.18,5.47-14.59,12.19-19.25,7.15-4.93,16.68-7.39,28.59-7.39h100.81Zm-88.54,13h-18.6l-7.31,20.8c-.38,1.08-.57,2.11-.57,3.09,0,4.66,4.33,6.99,13,6.99,1.03,0,1.92-.03,2.68-.08l10.8-30.79Z"/>
              <path class="cls-4" d="m436.64,333.95c-1.35,4.77-4.47,8.29-9.34,10.56-3.41,1.62-7.07,2.44-10.97,2.44h-31.27c-8.01,0-12.02-2.73-12.02-8.2,0-1.41.3-3.01.89-4.79l30.14-84.97h28.75l-30.3,84.97h34.12Z"/>
              <path class="cls-4" d="m492.32,332.77c-1.41,4.77-4.33,8.29-8.77,10.56-3.2,1.62-6.66,2.44-10.4,2.44h-32.09c-7.74,0-11.62-3.25-11.62-9.75,0-1.84.38-3.82,1.14-5.93l14.13-39.56h29.49l-15.03,42.24h33.14Zm-5.85-75.54c0,5.42-2.1,10.02-6.3,13.81-4.2,3.79-9.25,5.69-15.15,5.69s-11.12-1.9-15.31-5.69c-4.2-3.79-6.3-8.39-6.3-13.81s2.1-9.94,6.3-13.73c4.2-3.79,9.3-5.69,15.31-5.69s10.95,1.9,15.15,5.69c4.2,3.79,6.3,8.37,6.3,13.73Z"/>
              <path class="cls-4" d="m628.41,292.59c-2.17,8.66-8.66,20.11-19.5,20.11h-50.85c1.79,1.19,3.25,3.37,4.39,6.54,1.14,3.17,1.6,5.92,1.38,8.24-.76,9.04-5.36,15.36-11.94,21.28-5.48,4.93-14.49,13.93-25.48,13.93-20,0-16,0-30-9-6.41-4.12-9.99-15.55-9.99-22.97,0-1.46.14-2.92.41-4.39,1.41-8.18,5.87-22.1,12.59-26.76,7.15-4.93,15.09-9,27-9l102,2Zm-88.54,20.11h-18.6l-7.31,20.8c-.38,1.08-.55,2.09-.55,3.09,0,6.7,3.34,18.11,12,18.11,1.03,0,.24.06,1,0l13.46-42Z"/>
            </g>
            <g>
              <path class="cls-1" d="m370.44,42.59c0,25.16-17.38,46.75-52.15,64.77-23.21,12.16-50.83,21.38-82.88,27.67l-53.17,198.44c-1.67,6.25-6.12,11.38-12.06,13.93l-28.77,12.33L224.13,48.82l41.87-.24-21.93,61.33c16.49-3.74,31.11-9.56,43.86-17.47,17.77-11.14,26.99-24.1,27.67-38.89.42-9.52-2.76-15.77-9.56-18.74-4.08-1.79-11.43-2.68-22.06-2.68h-130.31L173.56,0h131.33c19.21,0,33.87,2.38,43.99,7.14,14.36,6.72,21.55,18.53,21.55,35.45Z"/>
              <path class="cls-1" d="m400.78,144.91c-2.45,9.81-9.81,14.72-22.08,14.72h-57.59c2.02,1.35,3.68,3.82,4.97,7.41s1.81,6.7,1.56,9.34c-.86,10.24-5.37,18.28-13.52,24.1-7.79,5.58-17.91,8.4-30.36,8.46-14.47.12-25.6-2.73-33.39-8.56-6.93-5.15-10.39-11.93-10.39-20.33,0-1.66.15-3.31.46-4.97,1.6-9.26,6.19-16.53,13.8-21.8,8.1-5.58,18.89-8.37,32.38-8.37h114.16Zm-100.27,14.72h-21.07l-8.28,23.55c-.43,1.23-.64,2.39-.64,3.5,0,5.28,4.91,7.91,14.72,7.91,1.16,0,2.18-.03,3.04-.09l12.23-34.87Z"/>
              <path class="cls-1" d="m460.64,211.18c0,3.99,51.92,6.95,48.04,10.37-4.26,3.76-62.67,3.75-66.77,3.32h-32.76c-8.67,0-13-3.59-13-10.78,0-1.82.37-3.79,1.11-5.9l9.67-27.8h-18.22l-9.5,24.55c-1.6,4.16-7.03,23.89-12.34,23.89h-14.55l18.67-48.44c-3.54-.8-6.4-2.58-8.6-5.35-2.19-2.77-3.29-5.95-3.29-9.54,0-6.56,3.05-11.63,9.15-15.23,5.08-2.97,11.12-4.45,18.14-4.45h13.86l-7.19,20.87h47.31l-15.57,44.48h35.84Z"/>
              <path class="cls-1" d="m526.54,208.46c-2.12,8.67-4.33,13.08-23.94,16.63h-41.43c-4.38-3.64-8.39-6.45-8.39-12.08,0-1.41.3-2.92.89-4.55l10.32-29.24h-13.32l5.12-13c9.48-2.44,16.52-5.55,21.12-9.34,5.2-4.28,10.75-12.02,16.65-23.23h15.84l-11.45,32.57h20.96c-3.36,8.66-10.18,13-20.47,13h-5.36l-10.15,29.24h43.62Z"/>
              <path class="cls-1" d="m353.27,248.84c-1.73,8.66-8.72,13-20.96,13h-54.02c4.98,4.6,7.26,12.7,6.82,24.29-.54,13.7-7.85,25.91-21.93,36.64-12.67,9.69-24.83,14.38-36.47,14.05-2.22-.05-4.57-.44-6.31-2.11-1.73-1.68-2.22-4.17-2.22-6.5,0-.92.19-1.87.57-2.84l20.55-58.08c-2.76-.76-5.09-2.22-6.99-4.39-2.17-2.38-3.25-5.12-3.25-8.2,0-1.9.43-3.84,1.3-5.85h15.27l15.19-42.73h29.24l-17.95,42.73h81.15Zm-92.12,49.83c1.41-4.14,2.11-7.78,2.11-10.93,0-4.44-1.44-7.77-4.31-9.99-4.44,10.4-11.37,25.99-20.8,46.79,4.39-2.27,8.99-6.17,13.81-11.7,4.71-5.31,7.77-10.03,9.18-14.17Z"/>
              <path class="cls-1" d="m433.11,248.13c-2.17,8.66-8.66,13-19.5,13h-50.85c1.79,1.19,3.25,3.37,4.39,6.54,1.14,3.17,1.6,5.92,1.38,8.24-.76,9.04-4.74,16.14-11.94,21.28-6.88,4.93-15.81,7.42-26.81,7.47-12.78.11-22.61-2.41-29.49-7.55-6.12-4.55-9.18-10.53-9.18-17.95,0-1.46.14-2.92.41-4.39,1.41-8.18,5.47-14.59,12.19-19.25,7.15-4.93,16.68-7.39,28.59-7.39h100.81Zm-88.54,13h-18.6l-7.31,20.8c-.38,1.08-.57,2.11-.57,3.09,0,4.66,4.33,6.99,13,6.99,1.03,0,1.92-.03,2.68-.08l10.8-30.79Z"/>
              <path class="cls-1" d="m436.64,333.95c-1.35,4.77-4.47,8.29-9.34,10.56-3.41,1.62-7.07,2.44-10.97,2.44h-31.27c-8.01,0-12.02-2.73-12.02-8.2,0-1.41.3-3.01.89-4.79l30.14-84.97h28.75l-30.3,84.97h34.12Z"/>
              <path class="cls-1" d="m492.32,332.77c-1.41,4.77-4.33,8.29-8.77,10.56-3.2,1.62-6.66,2.44-10.4,2.44h-32.09c-7.74,0-11.62-3.25-11.62-9.75,0-1.84.38-3.82,1.14-5.93l14.13-39.56h29.49l-15.03,42.24h33.14Zm-5.85-75.54c0,5.42-2.1,10.02-6.3,13.81-4.2,3.79-9.25,5.69-15.15,5.69s-11.12-1.9-15.31-5.69c-4.2-3.79-6.3-8.39-6.3-13.81s2.1-9.94,6.3-13.73c4.2-3.79,9.3-5.69,15.31-5.69s10.95,1.9,15.15,5.69c4.2,3.79,6.3,8.37,6.3,13.73Z"/>
              <path class="cls-1" d="m628.41,292.59c-2.17,8.66-8.66,20.11-19.5,20.11h-50.85c1.79,1.19,3.25,3.37,4.39,6.54,1.14,3.17,1.6,5.92,1.38,8.24-.76,9.04-5.36,15.36-11.94,21.28-5.48,4.93-14.49,13.93-25.48,13.93-20,0-16,0-30-9-6.41-4.12-9.99-15.55-9.99-22.97,0-1.46.14-2.92.41-4.39,1.41-8.18,5.87-22.1,12.59-26.76,7.15-4.93,15.09-9,27-9l102,2Zm-88.54,20.11h-18.6l-7.31,20.8c-.38,1.08-.55,2.09-.55,3.09,0,6.7,3.34,18.11,12,18.11,1.03,0,.24.06,1,0l13.46-42Z"/>
            </g>
          </g>
        </g>
      </g>
      <g class="cls-13">
        <path class="cls-3" d="m690.97,271.25c.39-2.11.43-4.28.1-6.63-.33-2.34-1.05-4.85-2.12-7.45-1.06-2.6-2.51-5.27-4.25-7.93-1.73-2.65-3.68-5.32-5.86-7.93-4.38-5.2-9.46-10.22-14.97-14.95-5.48-4.77-11.32-9.34-17.44-13.65-3.06-2.16-6.16-4.28-9.33-6.34-1.57-1.05-3.15-2.08-4.76-3.09-1.59-1.03-3.2-2.04-4.82-3.02-6.47-4-13.12-7.78-19.84-11.48-13.46-7.39-27.35-14.21-41.48-20.64-28.26-12.86-57.51-24.03-87.3-33.74-29.78-9.76-60.16-17.94-90.89-24.64-30.74-6.65-61.86-11.69-93.16-15.02-31.3-3.29-62.81-4.63-94.24-4.04-15.71.28-31.4,1.22-47,2.87-15.58,1.67-31.1,4.01-46.25,7.64-7.58,1.81-15.06,3.95-22.35,6.51-7.3,2.54-14.39,5.57-21.07,9.18-6.63,3.66-12.9,7.95-17.87,13.24-4.99,5.24-8.59,11.47-9.74,18.17-1.16,6.7.14,13.7,3.04,20.23,1.44,3.27,3.27,6.44,5.36,9.47,2.09,3.03,4.39,5.96,6.88,8.77,5.01,5.6,10.59,10.79,16.54,15.6,5.94,4.83,12.19,9.33,18.67,13.54,25.95,16.84,54.44,29.96,83.51,41.22,29.12,11.24,59.02,20.55,89.27,28.43,30.26,7.88,60.9,14.27,91.71,19.46,15.41,2.58,30.86,4.88,46.35,6.79,15.48,1.97,30.99,3.58,46.52,4.83,7.76.62,15.53,1.13,23.29,1.6,7.76.44,15.53.79,23.29,1.04,15.52.46,31.03.52,46.47.1,15.44-.42,30.83-1.38,46.03-3.06,15.2-1.62,30.26-3.95,44.8-7.37,7.27-1.7,14.38-3.73,21.23-6.09,6.87-2.33,13.43-5.09,19.42-8.28,5.92-3.22,11.35-6.91,15.24-10.97,1.95-2.02,3.54-4.1,4.7-6.16,1.16-2.07,1.91-4.11,2.31-6.22Zm31.04,5.83c-1.07,5.66-3.16,11.1-5.89,15.89-2.73,4.81-6.06,9-9.6,12.64-3.55,3.65-7.34,6.75-11.2,9.46-3.87,2.72-7.81,5.11-11.79,7.23-7.96,4.2-16.04,7.5-24.14,10.22-8.1,2.72-16.23,4.9-24.36,6.71-32.51,7.18-65,9.45-97.26,9.77-16.14.17-32.22-.33-48.26-1.23-16.03-.93-32.01-2.25-47.93-4.05-15.91-1.8-31.77-3.94-47.55-6.48-15.78-2.53-31.49-5.47-47.13-8.67-31.26-6.51-62.23-14.35-92.76-23.63-30.53-9.3-60.64-20.03-89.98-32.75-14.67-6.35-29.13-13.23-43.26-20.79-14.14-7.54-27.98-15.75-41.18-25.05-6.59-4.65-13.02-9.6-19.17-14.93-6.16-5.32-12.01-11.09-17.34-17.44-2.65-3.19-5.14-6.55-7.41-10.1-2.28-3.54-4.31-7.31-5.93-11.32-1.64-4-2.87-8.24-3.46-12.66-.59-4.41-.5-8.98.38-13.4.89-4.42,2.55-8.66,4.78-12.47,2.22-3.82,4.97-7.23,7.99-10.26,3.02-3.04,6.31-5.69,9.74-8.04,3.44-2.35,6.98-4.49,10.61-6.38,7.28-3.77,14.83-6.8,22.49-9.31,7.66-2.52,15.42-4.59,23.24-6.3,31.29-6.84,63.14-9.11,94.85-9.68,31.74-.52,63.43,1.22,95,3.97,31.58,2.74,63.04,6.79,94.38,11.75,62.63,10.11,125.09,23.79,185.53,45.9,7.54,2.8,15.06,5.69,22.51,8.8,7.45,3.12,14.85,6.4,22.2,9.87,7.35,3.46,14.6,7.19,21.79,11.12,1.8.97,3.59,1.98,5.37,3,1.79,1,3.57,2.05,5.34,3.1,3.54,2.1,7.04,4.32,10.52,6.59,13.89,9.12,27.4,19.43,39.31,32.91,5.89,6.81,11.45,14.43,15.48,23.8,2.01,4.67,3.58,9.78,4.38,15.25.81,5.46.78,11.29-.28,16.95Z"/>
      </g>
      <g class="cls-10">
        <path class="cls-3" d="m690.97,271.25c.39-2.11.43-4.28.1-6.63-.33-2.34-1.05-4.85-2.12-7.45-1.06-2.6-2.51-5.27-4.25-7.93-1.73-2.65-3.68-5.32-5.86-7.93-4.38-5.2-9.46-10.22-14.97-14.95-5.48-4.77-11.32-9.34-17.44-13.65-3.06-2.16-6.16-4.28-9.33-6.34-1.57-1.05-3.15-2.08-4.76-3.09-1.59-1.03-3.2-2.04-4.82-3.02-6.47-4-13.12-7.78-19.84-11.48-13.46-7.39-27.35-14.21-41.48-20.64-28.26-12.86-57.51-24.03-87.3-33.74-29.78-9.76-60.16-17.94-90.89-24.64-30.74-6.65-61.86-11.69-93.16-15.02-31.3-3.29-62.81-4.63-94.24-4.04-15.71.28-31.4,1.22-47,2.87-15.58,1.67-31.1,4.01-46.25,7.64-7.58,1.81-15.06,3.95-22.35,6.51-7.3,2.54-14.39,5.57-21.07,9.18-6.63,3.66-12.9,7.95-17.87,13.24-4.99,5.24-8.59,11.47-9.74,18.17-1.16,6.7.14,13.7,3.04,20.23,1.44,3.27,3.27,6.44,5.36,9.47,2.09,3.03,4.39,5.96,6.88,8.77,5.01,5.6,10.59,10.79,16.54,15.6,5.94,4.83,12.19,9.33,18.67,13.54,25.95,16.84,54.44,29.96,83.51,41.22,29.12,11.24,59.02,20.55,89.27,28.43,30.26,7.88,60.9,14.27,91.71,19.46,15.41,2.58,30.86,4.88,46.35,6.79,15.48,1.97,30.99,3.58,46.52,4.83,7.76.62,15.53,1.13,23.29,1.6,7.76.44,15.53.79,23.29,1.04,15.52.46,31.03.52,46.47.1,15.44-.42,30.83-1.38,46.03-3.06,15.2-1.62,30.26-3.95,44.8-7.37,7.27-1.7,14.38-3.73,21.23-6.09,6.87-2.33,13.43-5.09,19.42-8.28,5.92-3.22,11.35-6.91,15.24-10.97,1.95-2.02,3.54-4.1,4.7-6.16,1.16-2.07,1.91-4.11,2.31-6.22Zm31.04,5.83c-1.07,5.66-3.16,11.1-5.89,15.89-2.73,4.81-6.06,9-9.6,12.64-3.55,3.65-7.34,6.75-11.2,9.46-3.87,2.72-7.81,5.11-11.79,7.23-7.96,4.2-16.04,7.5-24.14,10.22-8.1,2.72-16.23,4.9-24.36,6.71-32.51,7.18-65,9.45-97.26,9.77-16.14.17-32.22-.33-48.26-1.23-16.03-.93-32.01-2.25-47.93-4.05-15.91-1.8-31.77-3.94-47.55-6.48-15.78-2.53-31.49-5.47-47.13-8.67-31.26-6.51-62.23-14.35-92.76-23.63-30.53-9.3-60.64-20.03-89.98-32.75-14.67-6.35-29.13-13.23-43.26-20.79-14.14-7.54-27.98-15.75-41.18-25.05-6.59-4.65-13.02-9.6-19.17-14.93-6.16-5.32-12.01-11.09-17.34-17.44-2.65-3.19-5.14-6.55-7.41-10.1-2.28-3.54-4.31-7.31-5.93-11.32-1.64-4-2.87-8.24-3.46-12.66-.59-4.41-.5-8.98.38-13.4.89-4.42,2.55-8.66,4.78-12.47,2.22-3.82,4.97-7.23,7.99-10.26,3.02-3.04,6.31-5.69,9.74-8.04,3.44-2.35,6.98-4.49,10.61-6.38,7.28-3.77,14.83-6.8,22.49-9.31,7.66-2.52,15.42-4.59,23.24-6.3,31.29-6.84,63.14-9.11,94.85-9.68,31.74-.52,63.43,1.22,95,3.97,31.58,2.74,63.04,6.79,94.38,11.75,62.63,10.11,125.09,23.79,185.53,45.9,7.54,2.8,15.06,5.69,22.51,8.8,7.45,3.12,14.85,6.4,22.2,9.87,7.35,3.46,14.6,7.19,21.79,11.12,1.8.97,3.59,1.98,5.37,3,1.79,1,3.57,2.05,5.34,3.1,3.54,2.1,7.04,4.32,10.52,6.59,13.89,9.12,27.4,19.43,39.31,32.91,5.89,6.81,11.45,14.43,15.48,23.8,2.01,4.67,3.58,9.78,4.38,15.25.81,5.46.78,11.29-.28,16.95Z"/>
      </g>
      <g class="cls-15">
        <path class="cls-3" d="m690.97,271.25c.39-2.11.43-4.28.1-6.63-.33-2.34-1.05-4.85-2.12-7.45-1.06-2.6-2.51-5.27-4.25-7.93-1.73-2.65-3.68-5.32-5.86-7.93-4.38-5.2-9.46-10.22-14.97-14.95-5.48-4.77-11.32-9.34-17.44-13.65-3.06-2.16-6.16-4.28-9.33-6.34-1.57-1.05-3.15-2.08-4.76-3.09-1.59-1.03-3.2-2.04-4.82-3.02-6.47-4-13.12-7.78-19.84-11.48-13.46-7.39-27.35-14.21-41.48-20.64-28.26-12.86-57.51-24.03-87.3-33.74-29.78-9.76-60.16-17.94-90.89-24.64-30.74-6.65-61.86-11.69-93.16-15.02-31.3-3.29-62.81-4.63-94.24-4.04-15.71.28-31.4,1.22-47,2.87-15.58,1.67-31.1,4.01-46.25,7.64-7.58,1.81-15.06,3.95-22.35,6.51-7.3,2.54-14.39,5.57-21.07,9.18-6.63,3.66-12.9,7.95-17.87,13.24-4.99,5.24-8.59,11.47-9.74,18.17-1.16,6.7.14,13.7,3.04,20.23,1.44,3.27,3.27,6.44,5.36,9.47,2.09,3.03,4.39,5.96,6.88,8.77,5.01,5.6,10.59,10.79,16.54,15.6,5.94,4.83,12.19,9.33,18.67,13.54,25.95,16.84,54.44,29.96,83.51,41.22,29.12,11.24,59.02,20.55,89.27,28.43,30.26,7.88,60.9,14.27,91.71,19.46,15.41,2.58,30.86,4.88,46.35,6.79,15.48,1.97,30.99,3.58,46.52,4.83,7.76.62,15.53,1.13,23.29,1.6,7.76.44,15.53.79,23.29,1.04,15.52.46,31.03.52,46.47.1,15.44-.42,30.83-1.38,46.03-3.06,15.2-1.62,30.26-3.95,44.8-7.37,7.27-1.7,14.38-3.73,21.23-6.09,6.87-2.33,13.43-5.09,19.42-8.28,5.92-3.22,11.35-6.91,15.24-10.97,1.95-2.02,3.54-4.1,4.7-6.16,1.16-2.07,1.91-4.11,2.31-6.22Zm31.04,5.83c-1.07,5.66-3.16,11.1-5.89,15.89-2.73,4.81-6.06,9-9.6,12.64-3.55,3.65-7.34,6.75-11.2,9.46-3.87,2.72-7.81,5.11-11.79,7.23-7.96,4.2-16.04,7.5-24.14,10.22-8.1,2.72-16.23,4.9-24.36,6.71-32.51,7.18-65,9.45-97.26,9.77-16.14.17-32.22-.33-48.26-1.23-16.03-.93-32.01-2.25-47.93-4.05-15.91-1.8-31.77-3.94-47.55-6.48-15.78-2.53-31.49-5.47-47.13-8.67-31.26-6.51-62.23-14.35-92.76-23.63-30.53-9.3-60.64-20.03-89.98-32.75-14.67-6.35-29.13-13.23-43.26-20.79-14.14-7.54-27.98-15.75-41.18-25.05-6.59-4.65-13.02-9.6-19.17-14.93-6.16-5.32-12.01-11.09-17.34-17.44-2.65-3.19-5.14-6.55-7.41-10.1-2.28-3.54-4.31-7.31-5.93-11.32-1.64-4-2.87-8.24-3.46-12.66-.59-4.41-.5-8.98.38-13.4.89-4.42,2.55-8.66,4.78-12.47,2.22-3.82,4.97-7.23,7.99-10.26,3.02-3.04,6.31-5.69,9.74-8.04,3.44-2.35,6.98-4.49,10.61-6.38,7.28-3.77,14.83-6.8,22.49-9.31,7.66-2.52,15.42-4.59,23.24-6.3,31.29-6.84,63.14-9.11,94.85-9.68,31.74-.52,63.43,1.22,95,3.97,31.58,2.74,63.04,6.79,94.38,11.75,62.63,10.11,125.09,23.79,185.53,45.9,7.54,2.8,15.06,5.69,22.51,8.8,7.45,3.12,14.85,6.4,22.2,9.87,7.35,3.46,14.6,7.19,21.79,11.12,1.8.97,3.59,1.98,5.37,3,1.79,1,3.57,2.05,5.34,3.1,3.54,2.1,7.04,4.32,10.52,6.59,13.89,9.12,27.4,19.43,39.31,32.91,5.89,6.81,11.45,14.43,15.48,23.8,2.01,4.67,3.58,9.78,4.38,15.25.81,5.46.78,11.29-.28,16.95Z"/>
      </g>
      <g class="cls-6">
        <g>
          <g>
            <path class="cls-4" d="m370.44,42.59c0,25.16-17.38,46.75-52.15,64.77-23.21,12.16-50.83,21.38-82.88,27.67l-53.17,198.44c-1.67,6.25-6.12,11.38-12.06,13.93l-28.77,12.33L224.13,48.82l41.87-.24-21.93,61.33c16.49-3.74,31.11-9.56,43.86-17.47,17.77-11.14,26.99-24.1,27.67-38.89.42-9.52-2.76-15.77-9.56-18.74-4.08-1.79-11.43-2.68-22.06-2.68h-130.31L173.56,0h131.33c19.21,0,33.87,2.38,43.99,7.14,14.36,6.72,21.55,18.53,21.55,35.45Z"/>
            <path class="cls-4" d="m400.78,144.91c-2.45,9.81-9.81,14.72-22.08,14.72h-57.59c2.02,1.35,3.68,3.82,4.97,7.41s1.81,6.7,1.56,9.34c-.86,10.24-5.37,18.28-13.52,24.1-7.79,5.58-17.91,8.4-30.36,8.46-14.47.12-25.6-2.73-33.39-8.56-6.93-5.15-10.39-11.93-10.39-20.33,0-1.66.15-3.31.46-4.97,1.6-9.26,6.19-16.53,13.8-21.8,8.1-5.58,18.89-8.37,32.38-8.37h114.16Zm-100.27,14.72h-21.07l-8.28,23.55c-.43,1.23-.64,2.39-.64,3.5,0,5.28,4.91,7.91,14.72,7.91,1.16,0,2.18-.03,3.04-.09l12.23-34.87Z"/>
            <path class="cls-4" d="m460.64,211.18c0,3.99,51.92,6.95,48.04,10.37-4.26,3.76-62.67,3.75-66.77,3.32h-32.76c-8.67,0-13-3.59-13-10.78,0-1.82.37-3.79,1.11-5.9l9.67-27.8h-18.22l-9.5,24.55c-1.6,4.16-7.03,23.89-12.34,23.89h-14.55l18.67-48.44c-3.54-.8-6.4-2.58-8.6-5.35-2.19-2.77-3.29-5.95-3.29-9.54,0-6.56,3.05-11.63,9.15-15.23,5.08-2.97,11.12-4.45,18.14-4.45h13.86l-7.19,20.87h47.31l-15.57,44.48h35.84Z"/>
            <path class="cls-4" d="m526.54,208.46c-2.12,8.67-4.33,13.08-23.94,16.63h-41.43c-4.38-3.64-8.39-6.45-8.39-12.08,0-1.41.3-2.92.89-4.55l10.32-29.24h-13.32l5.12-13c9.48-2.44,16.52-5.55,21.12-9.34,5.2-4.28,10.75-12.02,16.65-23.23h15.84l-11.45,32.57h20.96c-3.36,8.66-10.18,13-20.47,13h-5.36l-10.15,29.24h43.62Z"/>
            <path class="cls-4" d="m353.27,248.84c-1.73,8.66-8.72,13-20.96,13h-54.02c4.98,4.6,7.26,12.7,6.82,24.29-.54,13.7-7.85,25.91-21.93,36.64-12.67,9.69-24.83,14.38-36.47,14.05-2.22-.05-4.57-.44-6.31-2.11-1.73-1.68-2.22-4.17-2.22-6.5,0-.92.19-1.87.57-2.84l20.55-58.08c-2.76-.76-5.09-2.22-6.99-4.39-2.17-2.38-3.25-5.12-3.25-8.2,0-1.9.43-3.84,1.3-5.85h15.27l15.19-42.73h29.24l-17.95,42.73h81.15Zm-92.12,49.83c1.41-4.14,2.11-7.78,2.11-10.93,0-4.44-1.44-7.77-4.31-9.99-4.44,10.4-11.37,25.99-20.8,46.79,4.39-2.27,8.99-6.17,13.81-11.7,4.71-5.31,7.77-10.03,9.18-14.17Z"/>
            <path class="cls-4" d="m433.11,248.13c-2.17,8.66-8.66,13-19.5,13h-50.85c1.79,1.19,3.25,3.37,4.39,6.54,1.14,3.17,1.6,5.92,1.38,8.24-.76,9.04-4.74,16.14-11.94,21.28-6.88,4.93-15.81,7.42-26.81,7.47-12.78.11-22.61-2.41-29.49-7.55-6.12-4.55-9.18-10.53-9.18-17.95,0-1.46.14-2.92.41-4.39,1.41-8.18,5.47-14.59,12.19-19.25,7.15-4.93,16.68-7.39,28.59-7.39h100.81Zm-88.54,13h-18.6l-7.31,20.8c-.38,1.08-.57,2.11-.57,3.09,0,4.66,4.33,6.99,13,6.99,1.03,0,1.92-.03,2.68-.08l10.8-30.79Z"/>
            <path class="cls-4" d="m436.64,333.95c-1.35,4.77-4.47,8.29-9.34,10.56-3.41,1.62-7.07,2.44-10.97,2.44h-31.27c-8.01,0-12.02-2.73-12.02-8.2,0-1.41.3-3.01.89-4.79l30.14-84.97h28.75l-30.3,84.97h34.12Z"/>
            <path class="cls-4" d="m492.32,332.77c-1.41,4.77-4.33,8.29-8.77,10.56-3.2,1.62-6.66,2.44-10.4,2.44h-32.09c-7.74,0-11.62-3.25-11.62-9.75,0-1.84.38-3.82,1.14-5.93l14.13-39.56h29.49l-15.03,42.24h33.14Zm-5.85-75.54c0,5.42-2.1,10.02-6.3,13.81-4.2,3.79-9.25,5.69-15.15,5.69s-11.12-1.9-15.31-5.69c-4.2-3.79-6.3-8.39-6.3-13.81s2.1-9.94,6.3-13.73c4.2-3.79,9.3-5.69,15.31-5.69s10.95,1.9,15.15,5.69c4.2,3.79,6.3,8.37,6.3,13.73Z"/>
            <path class="cls-4" d="m628.41,292.59c-2.17,8.66-8.66,20.11-19.5,20.11h-50.85c1.79,1.19,3.25,3.37,4.39,6.54,1.14,3.17,1.6,5.92,1.38,8.24-.76,9.04-5.36,15.36-11.94,21.28-5.48,4.93-14.49,13.93-25.48,13.93-20,0-16,0-30-9-6.41-4.12-9.99-15.55-9.99-22.97,0-1.46.14-2.92.41-4.39,1.41-8.18,5.87-22.1,12.59-26.76,7.15-4.93,15.09-9,27-9l102,2Zm-88.54,20.11h-18.6l-7.31,20.8c-.38,1.08-.55,2.09-.55,3.09,0,6.7,3.34,18.11,12,18.11,1.03,0,.24.06,1,0l13.46-42Z"/>
          </g>
          <g>
            <path class="cls-1" d="m370.44,42.59c0,25.16-17.38,46.75-52.15,64.77-23.21,12.16-50.83,21.38-82.88,27.67l-53.17,198.44c-1.67,6.25-6.12,11.38-12.06,13.93l-28.77,12.33L224.13,48.82l41.87-.24-21.93,61.33c16.49-3.74,31.11-9.56,43.86-17.47,17.77-11.14,26.99-24.1,27.67-38.89.42-9.52-2.76-15.77-9.56-18.74-4.08-1.79-11.43-2.68-22.06-2.68h-130.31L173.56,0h131.33c19.21,0,33.87,2.38,43.99,7.14,14.36,6.72,21.55,18.53,21.55,35.45Z"/>
            <path class="cls-1" d="m400.78,144.91c-2.45,9.81-9.81,14.72-22.08,14.72h-57.59c2.02,1.35,3.68,3.82,4.97,7.41s1.81,6.7,1.56,9.34c-.86,10.24-5.37,18.28-13.52,24.1-7.79,5.58-17.91,8.4-30.36,8.46-14.47.12-25.6-2.73-33.39-8.56-6.93-5.15-10.39-11.93-10.39-20.33,0-1.66.15-3.31.46-4.97,1.6-9.26,6.19-16.53,13.8-21.8,8.1-5.58,18.89-8.37,32.38-8.37h114.16Zm-100.27,14.72h-21.07l-8.28,23.55c-.43,1.23-.64,2.39-.64,3.5,0,5.28,4.91,7.91,14.72,7.91,1.16,0,2.18-.03,3.04-.09l12.23-34.87Z"/>
            <path class="cls-1" d="m460.64,211.18c0,3.99,51.92,6.95,48.04,10.37-4.26,3.76-62.67,3.75-66.77,3.32h-32.76c-8.67,0-13-3.59-13-10.78,0-1.82.37-3.79,1.11-5.9l9.67-27.8h-18.22l-9.5,24.55c-1.6,4.16-7.03,23.89-12.34,23.89h-14.55l18.67-48.44c-3.54-.8-6.4-2.58-8.6-5.35-2.19-2.77-3.29-5.95-3.29-9.54,0-6.56,3.05-11.63,9.15-15.23,5.08-2.97,11.12-4.45,18.14-4.45h13.86l-7.19,20.87h47.31l-15.57,44.48h35.84Z"/>
            <path class="cls-1" d="m526.54,208.46c-2.12,8.67-4.33,13.08-23.94,16.63h-41.43c-4.38-3.64-8.39-6.45-8.39-12.08,0-1.41.3-2.92.89-4.55l10.32-29.24h-13.32l5.12-13c9.48-2.44,16.52-5.55,21.12-9.34,5.2-4.28,10.75-12.02,16.65-23.23h15.84l-11.45,32.57h20.96c-3.36,8.66-10.18,13-20.47,13h-5.36l-10.15,29.24h43.62Z"/>
            <path class="cls-1" d="m353.27,248.84c-1.73,8.66-8.72,13-20.96,13h-54.02c4.98,4.6,7.26,12.7,6.82,24.29-.54,13.7-7.85,25.91-21.93,36.64-12.67,9.69-24.83,14.38-36.47,14.05-2.22-.05-4.57-.44-6.31-2.11-1.73-1.68-2.22-4.17-2.22-6.5,0-.92.19-1.87.57-2.84l20.55-58.08c-2.76-.76-5.09-2.22-6.99-4.39-2.17-2.38-3.25-5.12-3.25-8.2,0-1.9.43-3.84,1.3-5.85h15.27l15.19-42.73h29.24l-17.95,42.73h81.15Zm-92.12,49.83c1.41-4.14,2.11-7.78,2.11-10.93,0-4.44-1.44-7.77-4.31-9.99-4.44,10.4-11.37,25.99-20.8,46.79,4.39-2.27,8.99-6.17,13.81-11.7,4.71-5.31,7.77-10.03,9.18-14.17Z"/>
            <path class="cls-1" d="m433.11,248.13c-2.17,8.66-8.66,13-19.5,13h-50.85c1.79,1.19,3.25,3.37,4.39,6.54,1.14,3.17,1.6,5.92,1.38,8.24-.76,9.04-4.74,16.14-11.94,21.28-6.88,4.93-15.81,7.42-26.81,7.47-12.78.11-22.61-2.41-29.49-7.55-6.12-4.55-9.18-10.53-9.18-17.95,0-1.46.14-2.92.41-4.39,1.41-8.18,5.47-14.59,12.19-19.25,7.15-4.93,16.68-7.39,28.59-7.39h100.81Zm-88.54,13h-18.6l-7.31,20.8c-.38,1.08-.57,2.11-.57,3.09,0,4.66,4.33,6.99,13,6.99,1.03,0,1.92-.03,2.68-.08l10.8-30.79Z"/>
            <path class="cls-1" d="m436.64,333.95c-1.35,4.77-4.47,8.29-9.34,10.56-3.41,1.62-7.07,2.44-10.97,2.44h-31.27c-8.01,0-12.02-2.73-12.02-8.2,0-1.41.3-3.01.89-4.79l30.14-84.97h28.75l-30.3,84.97h34.12Z"/>
            <path class="cls-1" d="m492.32,332.77c-1.41,4.77-4.33,8.29-8.77,10.56-3.2,1.62-6.66,2.44-10.4,2.44h-32.09c-7.74,0-11.62-3.25-11.62-9.75,0-1.84.38-3.82,1.14-5.93l14.13-39.56h29.49l-15.03,42.24h33.14Zm-5.85-75.54c0,5.42-2.1,10.02-6.3,13.81-4.2,3.79-9.25,5.69-15.15,5.69s-11.12-1.9-15.31-5.69c-4.2-3.79-6.3-8.39-6.3-13.81s2.1-9.94,6.3-13.73c4.2-3.79,9.3-5.69,15.31-5.69s10.95,1.9,15.15,5.69c4.2,3.79,6.3,8.37,6.3,13.73Z"/>
            <path class="cls-1" d="m628.41,292.59c-2.17,8.66-8.66,20.11-19.5,20.11h-50.85c1.79,1.19,3.25,3.37,4.39,6.54,1.14,3.17,1.6,5.92,1.38,8.24-.76,9.04-5.36,15.36-11.94,21.28-5.48,4.93-14.49,13.93-25.48,13.93-20,0-16,0-30-9-6.41-4.12-9.99-15.55-9.99-22.97,0-1.46.14-2.92.41-4.39,1.41-8.18,5.87-22.1,12.59-26.76,7.15-4.93,15.09-9,27-9l102,2Zm-88.54,20.11h-18.6l-7.31,20.8c-.38,1.08-.55,2.09-.55,3.09,0,6.7,3.34,18.11,12,18.11,1.03,0,.24.06,1,0l13.46-42Z"/>
          </g>
        </g>
      </g>
      <g class="cls-8">
        <g>
          <g>
            <path class="cls-4" d="m370.44,42.59c0,25.16-17.38,46.75-52.15,64.77-23.21,12.16-50.83,21.38-82.88,27.67l-53.17,198.44c-1.67,6.25-6.12,11.38-12.06,13.93l-28.77,12.33L224.13,48.82l41.87-.24-21.93,61.33c16.49-3.74,31.11-9.56,43.86-17.47,17.77-11.14,26.99-24.1,27.67-38.89.42-9.52-2.76-15.77-9.56-18.74-4.08-1.79-11.43-2.68-22.06-2.68h-130.31L173.56,0h131.33c19.21,0,33.87,2.38,43.99,7.14,14.36,6.72,21.55,18.53,21.55,35.45Z"/>
            <path class="cls-4" d="m400.78,144.91c-2.45,9.81-9.81,14.72-22.08,14.72h-57.59c2.02,1.35,3.68,3.82,4.97,7.41s1.81,6.7,1.56,9.34c-.86,10.24-5.37,18.28-13.52,24.1-7.79,5.58-17.91,8.4-30.36,8.46-14.47.12-25.6-2.73-33.39-8.56-6.93-5.15-10.39-11.93-10.39-20.33,0-1.66.15-3.31.46-4.97,1.6-9.26,6.19-16.53,13.8-21.8,8.1-5.58,18.89-8.37,32.38-8.37h114.16Zm-100.27,14.72h-21.07l-8.28,23.55c-.43,1.23-.64,2.39-.64,3.5,0,5.28,4.91,7.91,14.72,7.91,1.16,0,2.18-.03,3.04-.09l12.23-34.87Z"/>
            <path class="cls-4" d="m460.64,211.18c0,3.99,51.92,6.95,48.04,10.37-4.26,3.76-62.67,3.75-66.77,3.32h-32.76c-8.67,0-13-3.59-13-10.78,0-1.82.37-3.79,1.11-5.9l9.67-27.8h-18.22l-9.5,24.55c-1.6,4.16-7.03,23.89-12.34,23.89h-14.55l18.67-48.44c-3.54-.8-6.4-2.58-8.6-5.35-2.19-2.77-3.29-5.95-3.29-9.54,0-6.56,3.05-11.63,9.15-15.23,5.08-2.97,11.12-4.45,18.14-4.45h13.86l-7.19,20.87h47.31l-15.57,44.48h35.84Z"/>
            <path class="cls-4" d="m526.54,208.46c-2.12,8.67-4.33,13.08-23.94,16.63h-41.43c-4.38-3.64-8.39-6.45-8.39-12.08,0-1.41.3-2.92.89-4.55l10.32-29.24h-13.32l5.12-13c9.48-2.44,16.52-5.55,21.12-9.34,5.2-4.28,10.75-12.02,16.65-23.23h15.84l-11.45,32.57h20.96c-3.36,8.66-10.18,13-20.47,13h-5.36l-10.15,29.24h43.62Z"/>
            <path class="cls-4" d="m353.27,248.84c-1.73,8.66-8.72,13-20.96,13h-54.02c4.98,4.6,7.26,12.7,6.82,24.29-.54,13.7-7.85,25.91-21.93,36.64-12.67,9.69-24.83,14.38-36.47,14.05-2.22-.05-4.57-.44-6.31-2.11-1.73-1.68-2.22-4.17-2.22-6.5,0-.92.19-1.87.57-2.84l20.55-58.08c-2.76-.76-5.09-2.22-6.99-4.39-2.17-2.38-3.25-5.12-3.25-8.2,0-1.9.43-3.84,1.3-5.85h15.27l15.19-42.73h29.24l-17.95,42.73h81.15Zm-92.12,49.83c1.41-4.14,2.11-7.78,2.11-10.93,0-4.44-1.44-7.77-4.31-9.99-4.44,10.4-11.37,25.99-20.8,46.79,4.39-2.27,8.99-6.17,13.81-11.7,4.71-5.31,7.77-10.03,9.18-14.17Z"/>
            <path class="cls-4" d="m433.11,248.13c-2.17,8.66-8.66,13-19.5,13h-50.85c1.79,1.19,3.25,3.37,4.39,6.54,1.14,3.17,1.6,5.92,1.38,8.24-.76,9.04-4.74,16.14-11.94,21.28-6.88,4.93-15.81,7.42-26.81,7.47-12.78.11-22.61-2.41-29.49-7.55-6.12-4.55-9.18-10.53-9.18-17.95,0-1.46.14-2.92.41-4.39,1.41-8.18,5.47-14.59,12.19-19.25,7.15-4.93,16.68-7.39,28.59-7.39h100.81Zm-88.54,13h-18.6l-7.31,20.8c-.38,1.08-.57,2.11-.57,3.09,0,4.66,4.33,6.99,13,6.99,1.03,0,1.92-.03,2.68-.08l10.8-30.79Z"/>
            <path class="cls-4" d="m436.64,333.95c-1.35,4.77-4.47,8.29-9.34,10.56-3.41,1.62-7.07,2.44-10.97,2.44h-31.27c-8.01,0-12.02-2.73-12.02-8.2,0-1.41.3-3.01.89-4.79l30.14-84.97h28.75l-30.3,84.97h34.12Z"/>
            <path class="cls-4" d="m492.32,332.77c-1.41,4.77-4.33,8.29-8.77,10.56-3.2,1.62-6.66,2.44-10.4,2.44h-32.09c-7.74,0-11.62-3.25-11.62-9.75,0-1.84.38-3.82,1.14-5.93l14.13-39.56h29.49l-15.03,42.24h33.14Zm-5.85-75.54c0,5.42-2.1,10.02-6.3,13.81-4.2,3.79-9.25,5.69-15.15,5.69s-11.12-1.9-15.31-5.69c-4.2-3.79-6.3-8.39-6.3-13.81s2.1-9.94,6.3-13.73c4.2-3.79,9.3-5.69,15.31-5.69s10.95,1.9,15.15,5.69c4.2,3.79,6.3,8.37,6.3,13.73Z"/>
            <path class="cls-4" d="m628.41,292.59c-2.17,8.66-8.66,20.11-19.5,20.11h-50.85c1.79,1.19,3.25,3.37,4.39,6.54,1.14,3.17,1.6,5.92,1.38,8.24-.76,9.04-5.36,15.36-11.94,21.28-5.48,4.93-14.49,13.93-25.48,13.93-20,0-16,0-30-9-6.41-4.12-9.99-15.55-9.99-22.97,0-1.46.14-2.92.41-4.39,1.41-8.18,5.87-22.1,12.59-26.76,7.15-4.93,15.09-9,27-9l102,2Zm-88.54,20.11h-18.6l-7.31,20.8c-.38,1.08-.55,2.09-.55,3.09,0,6.7,3.34,18.11,12,18.11,1.03,0,.24.06,1,0l13.46-42Z"/>
          </g>
          <g>
            <path class="cls-1" d="m370.44,42.59c0,25.16-17.38,46.75-52.15,64.77-23.21,12.16-50.83,21.38-82.88,27.67l-53.17,198.44c-1.67,6.25-6.12,11.38-12.06,13.93l-28.77,12.33L224.13,48.82l41.87-.24-21.93,61.33c16.49-3.74,31.11-9.56,43.86-17.47,17.77-11.14,26.99-24.1,27.67-38.89.42-9.52-2.76-15.77-9.56-18.74-4.08-1.79-11.43-2.68-22.06-2.68h-130.31L173.56,0h131.33c19.21,0,33.87,2.38,43.99,7.14,14.36,6.72,21.55,18.53,21.55,35.45Z"/>
            <path class="cls-1" d="m400.78,144.91c-2.45,9.81-9.81,14.72-22.08,14.72h-57.59c2.02,1.35,3.68,3.82,4.97,7.41s1.81,6.7,1.56,9.34c-.86,10.24-5.37,18.28-13.52,24.1-7.79,5.58-17.91,8.4-30.36,8.46-14.47.12-25.6-2.73-33.39-8.56-6.93-5.15-10.39-11.93-10.39-20.33,0-1.66.15-3.31.46-4.97,1.6-9.26,6.19-16.53,13.8-21.8,8.1-5.58,18.89-8.37,32.38-8.37h114.16Zm-100.27,14.72h-21.07l-8.28,23.55c-.43,1.23-.64,2.39-.64,3.5,0,5.28,4.91,7.91,14.72,7.91,1.16,0,2.18-.03,3.04-.09l12.23-34.87Z"/>
            <path class="cls-1" d="m460.64,211.18c0,3.99,51.92,6.95,48.04,10.37-4.26,3.76-62.67,3.75-66.77,3.32h-32.76c-8.67,0-13-3.59-13-10.78,0-1.82.37-3.79,1.11-5.9l9.67-27.8h-18.22l-9.5,24.55c-1.6,4.16-7.03,23.89-12.34,23.89h-14.55l18.67-48.44c-3.54-.8-6.4-2.58-8.6-5.35-2.19-2.77-3.29-5.95-3.29-9.54,0-6.56,3.05-11.63,9.15-15.23,5.08-2.97,11.12-4.45,18.14-4.45h13.86l-7.19,20.87h47.31l-15.57,44.48h35.84Z"/>
            <path class="cls-1" d="m526.54,208.46c-2.12,8.67-4.33,13.08-23.94,16.63h-41.43c-4.38-3.64-8.39-6.45-8.39-12.08,0-1.41.3-2.92.89-4.55l10.32-29.24h-13.32l5.12-13c9.48-2.44,16.52-5.55,21.12-9.34,5.2-4.28,10.75-12.02,16.65-23.23h15.84l-11.45,32.57h20.96c-3.36,8.66-10.18,13-20.47,13h-5.36l-10.15,29.24h43.62Z"/>
            <path class="cls-1" d="m353.27,248.84c-1.73,8.66-8.72,13-20.96,13h-54.02c4.98,4.6,7.26,12.7,6.82,24.29-.54,13.7-7.85,25.91-21.93,36.64-12.67,9.69-24.83,14.38-36.47,14.05-2.22-.05-4.57-.44-6.31-2.11-1.73-1.68-2.22-4.17-2.22-6.5,0-.92.19-1.87.57-2.84l20.55-58.08c-2.76-.76-5.09-2.22-6.99-4.39-2.17-2.38-3.25-5.12-3.25-8.2,0-1.9.43-3.84,1.3-5.85h15.27l15.19-42.73h29.24l-17.95,42.73h81.15Zm-92.12,49.83c1.41-4.14,2.11-7.78,2.11-10.93,0-4.44-1.44-7.77-4.31-9.99-4.44,10.4-11.37,25.99-20.8,46.79,4.39-2.27,8.99-6.17,13.81-11.7,4.71-5.31,7.77-10.03,9.18-14.17Z"/>
            <path class="cls-1" d="m433.11,248.13c-2.17,8.66-8.66,13-19.5,13h-50.85c1.79,1.19,3.25,3.37,4.39,6.54,1.14,3.17,1.6,5.92,1.38,8.24-.76,9.04-4.74,16.14-11.94,21.28-6.88,4.93-15.81,7.42-26.81,7.47-12.78.11-22.61-2.41-29.49-7.55-6.12-4.55-9.18-10.53-9.18-17.95,0-1.46.14-2.92.41-4.39,1.41-8.18,5.47-14.59,12.19-19.25,7.15-4.93,16.68-7.39,28.59-7.39h100.81Zm-88.54,13h-18.6l-7.31,20.8c-.38,1.08-.57,2.11-.57,3.09,0,4.66,4.33,6.99,13,6.99,1.03,0,1.92-.03,2.68-.08l10.8-30.79Z"/>
            <path class="cls-1" d="m436.64,333.95c-1.35,4.77-4.47,8.29-9.34,10.56-3.41,1.62-7.07,2.44-10.97,2.44h-31.27c-8.01,0-12.02-2.73-12.02-8.2,0-1.41.3-3.01.89-4.79l30.14-84.97h28.75l-30.3,84.97h34.12Z"/>
            <path class="cls-1" d="m492.32,332.77c-1.41,4.77-4.33,8.29-8.77,10.56-3.2,1.62-6.66,2.44-10.4,2.44h-32.09c-7.74,0-11.62-3.25-11.62-9.75,0-1.84.38-3.82,1.14-5.93l14.13-39.56h29.49l-15.03,42.24h33.14Zm-5.85-75.54c0,5.42-2.1,10.02-6.3,13.81-4.2,3.79-9.25,5.69-15.15,5.69s-11.12-1.9-15.31-5.69c-4.2-3.79-6.3-8.39-6.3-13.81s2.1-9.94,6.3-13.73c4.2-3.79,9.3-5.69,15.31-5.69s10.95,1.9,15.15,5.69c4.2,3.79,6.3,8.37,6.3,13.73Z"/>
            <path class="cls-1" d="m628.41,292.59c-2.17,8.66-8.66,20.11-19.5,20.11h-50.85c1.79,1.19,3.25,3.37,4.39,6.54,1.14,3.17,1.6,5.92,1.38,8.24-.76,9.04-5.36,15.36-11.94,21.28-5.48,4.93-14.49,13.93-25.48,13.93-20,0-16,0-30-9-6.41-4.12-9.99-15.55-9.99-22.97,0-1.46.14-2.92.41-4.39,1.41-8.18,5.87-22.1,12.59-26.76,7.15-4.93,15.09-9,27-9l102,2Zm-88.54,20.11h-18.6l-7.31,20.8c-.38,1.08-.55,2.09-.55,3.09,0,6.7,3.34,18.11,12,18.11,1.03,0,.24.06,1,0l13.46-42Z"/>
          </g>
        </g>
      </g>
      <g class="cls-11">
        <path class="cls-1" d="m370.44,42.59c0,25.16-17.38,46.75-52.15,64.77-23.21,12.16-50.83,21.38-82.88,27.67l-53.17,198.44c-1.67,6.25-6.12,11.38-12.06,13.93l-28.77,12.33L224.13,48.82l41.87-.24-21.93,61.33c16.49-3.74,31.11-9.56,43.86-17.47,17.77-11.14,26.99-24.1,27.67-38.89.42-9.52-2.76-15.77-9.56-18.74-4.08-1.79-11.43-2.68-22.06-2.68h-130.31L173.56,0h131.33c19.21,0,33.87,2.38,43.99,7.14,14.36,6.72,21.55,18.53,21.55,35.45Z"/>
        <path class="cls-1" d="m400.78,144.91c-2.45,9.81-9.81,14.72-22.08,14.72h-57.59c2.02,1.35,3.68,3.82,4.97,7.41s1.81,6.7,1.56,9.34c-.86,10.24-5.37,18.28-13.52,24.1-7.79,5.58-17.91,8.4-30.36,8.46-14.47.12-25.6-2.73-33.39-8.56-6.93-5.15-10.39-11.93-10.39-20.33,0-1.66.15-3.31.46-4.97,1.6-9.26,6.19-16.53,13.8-21.8,8.1-5.58,18.89-8.37,32.38-8.37h114.16Zm-100.27,14.72h-21.07l-8.28,23.55c-.43,1.23-.64,2.39-.64,3.5,0,5.28,4.91,7.91,14.72,7.91,1.16,0,2.18-.03,3.04-.09l12.23-34.87Z"/>
        <path class="cls-1" d="m460.64,211.18c0,3.99,51.92,6.95,48.04,10.37-4.26,3.76-62.67,3.75-66.77,3.32h-32.76c-8.67,0-13-3.59-13-10.78,0-1.82.37-3.79,1.11-5.9l9.67-27.8h-18.22l-9.5,24.55c-1.6,4.16-7.03,23.89-12.34,23.89h-14.55l18.67-48.44c-3.54-.8-6.4-2.58-8.6-5.35-2.19-2.77-3.29-5.95-3.29-9.54,0-6.56,3.05-11.63,9.15-15.23,5.08-2.97,11.12-4.45,18.14-4.45h13.86l-7.19,20.87h47.31l-15.57,44.48h35.84Z"/>
        <path class="cls-1" d="m526.54,208.46c-2.12,8.67-4.33,13.08-23.94,16.63h-41.43c-4.38-3.64-8.39-6.45-8.39-12.08,0-1.41.3-2.92.89-4.55l10.32-29.24h-13.32l5.12-13c9.48-2.44,16.52-5.55,21.12-9.34,5.2-4.28,10.75-12.02,16.65-23.23h15.84l-11.45,32.57h20.96c-3.36,8.66-10.18,13-20.47,13h-5.36l-10.15,29.24h43.62Z"/>
        <path class="cls-1" d="m353.27,248.84c-1.73,8.66-8.72,13-20.96,13h-54.02c4.98,4.6,7.26,12.7,6.82,24.29-.54,13.7-7.85,25.91-21.93,36.64-12.67,9.69-24.83,14.38-36.47,14.05-2.22-.05-4.57-.44-6.31-2.11-1.73-1.68-2.22-4.17-2.22-6.5,0-.92.19-1.87.57-2.84l20.55-58.08c-2.76-.76-5.09-2.22-6.99-4.39-2.17-2.38-3.25-5.12-3.25-8.2,0-1.9.43-3.84,1.3-5.85h15.27l15.19-42.73h29.24l-17.95,42.73h81.15Zm-92.12,49.83c1.41-4.14,2.11-7.78,2.11-10.93,0-4.44-1.44-7.77-4.31-9.99-4.44,10.4-11.37,25.99-20.8,46.79,4.39-2.27,8.99-6.17,13.81-11.7,4.71-5.31,7.77-10.03,9.18-14.17Z"/>
        <path class="cls-1" d="m433.11,248.13c-2.17,8.66-8.66,13-19.5,13h-50.85c1.79,1.19,3.25,3.37,4.39,6.54,1.14,3.17,1.6,5.92,1.38,8.24-.76,9.04-4.74,16.14-11.94,21.28-6.88,4.93-15.81,7.42-26.81,7.47-12.78.11-22.61-2.41-29.49-7.55-6.12-4.55-9.18-10.53-9.18-17.95,0-1.46.14-2.92.41-4.39,1.41-8.18,5.47-14.59,12.19-19.25,7.15-4.93,16.68-7.39,28.59-7.39h100.81Zm-88.54,13h-18.6l-7.31,20.8c-.38,1.08-.57,2.11-.57,3.09,0,4.66,4.33,6.99,13,6.99,1.03,0,1.92-.03,2.68-.08l10.8-30.79Z"/>
        <path class="cls-1" d="m436.64,333.95c-1.35,4.77-4.47,8.29-9.34,10.56-3.41,1.62-7.07,2.44-10.97,2.44h-31.27c-8.01,0-12.02-2.73-12.02-8.2,0-1.41.3-3.01.89-4.79l30.14-84.97h28.75l-30.3,84.97h34.12Z"/>
        <path class="cls-1" d="m492.32,332.77c-1.41,4.77-4.33,8.29-8.77,10.56-3.2,1.62-6.66,2.44-10.4,2.44h-32.09c-7.74,0-11.62-3.25-11.62-9.75,0-1.84.38-3.82,1.14-5.93l14.13-39.56h29.49l-15.03,42.24h33.14Zm-5.85-75.54c0,5.42-2.1,10.02-6.3,13.81-4.2,3.79-9.25,5.69-15.15,5.69s-11.12-1.9-15.31-5.69c-4.2-3.79-6.3-8.39-6.3-13.81s2.1-9.94,6.3-13.73c4.2-3.79,9.3-5.69,15.31-5.69s10.95,1.9,15.15,5.69c4.2,3.79,6.3,8.37,6.3,13.73Z"/>
        <path class="cls-1" d="m628.41,292.59c-2.17,8.66-8.66,20.11-19.5,20.11h-50.85c1.79,1.19,3.25,3.37,4.39,6.54,1.14,3.17,1.6,5.92,1.38,8.24-.76,9.04-5.36,15.36-11.94,21.28-5.48,4.93-14.49,13.93-25.48,13.93-20,0-16,0-30-9-6.41-4.12-9.99-15.55-9.99-22.97,0-1.46.14-2.92.41-4.39,1.41-8.18,5.87-22.1,12.59-26.76,7.15-4.93,15.09-9,27-9l102,2Zm-88.54,20.11h-18.6l-7.31,20.8c-.38,1.08-.55,2.09-.55,3.09,0,6.7,3.34,18.11,12,18.11,1.03,0,.24.06,1,0l13.46-42Z"/>
      </g>
      <g class="cls-14">
        <path class="cls-3" d="m690.97,271.25c.39-2.11.43-4.28.1-6.63-.33-2.34-1.05-4.85-2.12-7.45-1.06-2.6-2.51-5.27-4.25-7.93-1.73-2.65-3.68-5.32-5.86-7.93-4.38-5.2-9.46-10.22-14.97-14.95-5.48-4.77-11.32-9.34-17.44-13.65-3.06-2.16-6.16-4.28-9.33-6.34-1.57-1.05-3.15-2.08-4.76-3.09-1.59-1.03-3.2-2.04-4.82-3.02-6.47-4-13.12-7.78-19.84-11.48-13.46-7.39-27.35-14.21-41.48-20.64-28.26-12.86-57.51-24.03-87.3-33.74-29.78-9.76-60.16-17.94-90.89-24.64-30.74-6.65-61.86-11.69-93.16-15.02-31.3-3.29-62.81-4.63-94.24-4.04-15.71.28-31.4,1.22-47,2.87-15.58,1.67-31.1,4.01-46.25,7.64-7.58,1.81-15.06,3.95-22.35,6.51-7.3,2.54-14.39,5.57-21.07,9.18-6.63,3.66-12.9,7.95-17.87,13.24-4.99,5.24-8.59,11.47-9.74,18.17-1.16,6.7.14,13.7,3.04,20.23,1.44,3.27,3.27,6.44,5.36,9.47,2.09,3.03,4.39,5.96,6.88,8.77,5.01,5.6,10.59,10.79,16.54,15.6,5.94,4.83,12.19,9.33,18.67,13.54,25.95,16.84,54.44,29.96,83.51,41.22,29.12,11.24,59.02,20.55,89.27,28.43,30.26,7.88,60.9,14.27,91.71,19.46,15.41,2.58,30.86,4.88,46.35,6.79,15.48,1.97,30.99,3.58,46.52,4.83,7.76.62,15.53,1.13,23.29,1.6,7.76.44,15.53.79,23.29,1.04,15.52.46,31.03.52,46.47.1,15.44-.42,30.83-1.38,46.03-3.06,15.2-1.62,30.26-3.95,44.8-7.37,7.27-1.7,14.38-3.73,21.23-6.09,6.87-2.33,13.43-5.09,19.42-8.28,5.92-3.22,11.35-6.91,15.24-10.97,1.95-2.02,3.54-4.1,4.7-6.16,1.16-2.07,1.91-4.11,2.31-6.22Zm31.04,5.83c-1.07,5.66-3.16,11.1-5.89,15.89-2.73,4.81-6.06,9-9.6,12.64-3.55,3.65-7.34,6.75-11.2,9.46-3.87,2.72-7.81,5.11-11.79,7.23-7.96,4.2-16.04,7.5-24.14,10.22-8.1,2.72-16.23,4.9-24.36,6.71-32.51,7.18-65,9.45-97.26,9.77-16.14.17-32.22-.33-48.26-1.23-16.03-.93-32.01-2.25-47.93-4.05-15.91-1.8-31.77-3.94-47.55-6.48-15.78-2.53-31.49-5.47-47.13-8.67-31.26-6.51-62.23-14.35-92.76-23.63-30.53-9.3-60.64-20.03-89.98-32.75-14.67-6.35-29.13-13.23-43.26-20.79-14.14-7.54-27.98-15.75-41.18-25.05-6.59-4.65-13.02-9.6-19.17-14.93-6.16-5.32-12.01-11.09-17.34-17.44-2.65-3.19-5.14-6.55-7.41-10.1-2.28-3.54-4.31-7.31-5.93-11.32-1.64-4-2.87-8.24-3.46-12.66-.59-4.41-.5-8.98.38-13.4.89-4.42,2.55-8.66,4.78-12.47,2.22-3.82,4.97-7.23,7.99-10.26,3.02-3.04,6.31-5.69,9.74-8.04,3.44-2.35,6.98-4.49,10.61-6.38,7.28-3.77,14.83-6.8,22.49-9.31,7.66-2.52,15.42-4.59,23.24-6.3,31.29-6.84,63.14-9.11,94.85-9.68,31.74-.52,63.43,1.22,95,3.97,31.58,2.74,63.04,6.79,94.38,11.75,62.63,10.11,125.09,23.79,185.53,45.9,7.54,2.8,15.06,5.69,22.51,8.8,7.45,3.12,14.85,6.4,22.2,9.87,7.35,3.46,14.6,7.19,21.79,11.12,1.8.97,3.59,1.98,5.37,3,1.79,1,3.57,2.05,5.34,3.1,3.54,2.1,7.04,4.32,10.52,6.59,13.89,9.12,27.4,19.43,39.31,32.91,5.89,6.81,11.45,14.43,15.48,23.8,2.01,4.67,3.58,9.78,4.38,15.25.81,5.46.78,11.29-.28,16.95Z"/>
      </g>
      <g>
        <path class="cls-1" d="m87.8,127.07c-6.49,82.63-14.1,89.74-87.8,82.07,73.7,7.67,80.08,16.24,73.59,98.87,6.49-82.63,14.1-89.74,87.8-82.07-73.7-7.67-80.08-16.24-73.59-98.87Z"/>
        <path class="cls-1" d="m110.69,246.83c-26.47-16.19-35.07-16.73-62.54-3.92,17.19-22.89,17.45-30.51,1.92-55.45,26.47,16.19,35.07,16.73,62.54,3.92-17.19,22.89-17.45,30.51-1.92,55.45Z"/>
      </g>
    </g>
    <path class="cls-1" d="m725.52,331.95c-31.24,2.33-34.35,5.18-39.36,36.04-2.34-31.17-5.2-34.28-36.12-39.28,31.24-2.33,34.35-5.18,39.36-36.04,2.34,31.17,5.2,34.28,36.12,39.28Z"/>
    <path class="cls-1" d="m755.06,284.43c-31.3-1.4-34.72,1.06-43.37,31.1,1.38-31.23-1.08-34.65-31.2-43.3,31.3,1.4,34.72-1.06,43.37-31.1-1.38,31.23,1.08,34.65,31.2,43.3Z"/>
  </g>
</svg>