<?xml version="1.0" encoding="UTF-8"?>
<svg id="_レイヤー_2" data-name="レイヤー 2" xmlns="http://www.w3.org/2000/svg" viewBox="0 0 360.7 367.56">
  <defs>
    <style>
      .cls-1 {
        stroke-width: 0px;
      }
    </style>
  </defs>
  <g id="_レイヤー_1-2" data-name="レイヤー 1">
    <path class="cls-1" d="m276.1,236.62c-.08-.56-.56-1.14-1.17-1.33-5.17-1.89-8.36-5.7-8.89-10.7-.56-5.33-.42-17.11-.21-17.11v-37.31c-.21-17.64-.46-33.9-13.21-42.95-15.42-10.81-36.12-.94-45.62,4.58-9.36,4.72-10.5,4.81-11.86,4.86-.89.03-1.36-.03-2.03-.5-.67-.44-1.14-1.08-2.03-2.06-2.03-2.19-3.89-4.61-7.33-6.95-12.7-8.67-40.37,2.26-40.37,2.26,0,0,.57,0,.54,0-1.55.75-2.96,1.53-4.23,2.22-9.87,4.92-13.65,4.61-15.09,3.42-.42-.47-.65-1.28-.76-2v-.44c0-.47-.06-.94-.08-1.39-.68-6.2-4.26-9.09-15.34-8.92,0,0-8.43,0-11.25.03-2.48,0-7.39.06-10.77.08-1.18,0-2.14.69-1.64,2,.45.89,1.55,1.19,2.48,1.42,5.08,1.19,9.48,3.14,10.21,7.39.34,1.92.37,3.56.39,5.81v68.52s.13,11.81-.4,17.11c-.5,5-3.55,8.81-8.49,10.7-.58.22-1.03.81-1.11,1.33v.08c-.13.86.48,1.58,1.33,1.64h44.22c.93-.06,1.6-.78,1.46-1.64v-.08c-.12-.56-.61-1.14-1.25-1.33-5.41-1.89-8.76-5.7-9.31-10.7-.58-5.33-.44-17.11-.44-17.11v-48.33c0-14.45,0-14.67,14.93-23.99,10.49-6.53,18.41-5.36,25.64,3.96.81,1.06,1.48,2.15,2.09,3.26.17.42,1.09,2.54,1.51,4.27.39,1.79.81,4.18.84,6.61v.31c0,.78-.17,3.58-1.36,6.22-4.54,9.06-13.71,17.23-15.04,22.45-1.05,4.11,1.77,7.75,8.36,7.47,2.38-.08,5.84-1.14,9.75-2.64,7.98-3.06,17.97-8.36,25.45-11.95,4.74-2.28,8.34-3.64,9.89-3.78,2.1-.22,3.38.67,3.24,2.56-.19,2.64-5.93,5.75-13.13,10.11-11.16,6.75-24.29,14.31-25.45,32.51-.22,3.45-.69,8.06-.69,8.06-.53,5-3.71,8.81-8.86,10.7-.61.22-1.08.81-1.16,1.33v.08c-.14.86.5,1.58,1.38,1.64h44.2c.91-.06,1.56-.78,1.42-1.64v-.08c-.11-.56-.6-1.14-1.22-1.33-5.27-1.89-8.53-5.7-9.07-10.7-.17-1.61-.68-5.2-.71-9.64v-2.59c1.43-26.88,17.39-28.92,18.79-37.62.77-4.71-3.22-7.32-9-6.25-1.73.33-5.48,1.57-9.8,3.49-7.79,3.47-18.05,8.86-25.29,12-3.44,1.49-6.22,2.45-7.59,2.45-2.56,0-3.71-.69-3.71-2.5,0-3.03,4.84-6.58,11.31-10.24,12.77-7.18,22.07-12.85,24.66-25.89.5-5.64,3.47-7.26,12.25-12.52,10.35-6.19,19.07-5.06,26.2,4.13,5.75,7.59,6.19,15.41,6.19,37.01l-.06,31.05s.15,11.81-.44,17.11c-.55,5-3.89,8.81-9.29,10.7-.64.22-1.13.81-1.22,1.33v.08c-.15.86.52,1.58,1.45,1.64h44.39s1.53-.93,1.15-1.8v-.08l.26.08Z"/>
    <g>
      <path class="cls-1" d="m128.67,45.24c.1.16.25.16.31-.1.26-3.51.71-13.12.74-15.26.06-.56.16-1,.4-1.47.3-.59.83-.77,1.05-.4.48.68.88,1.44,2.2,3.18,1.93,2.52,6.47,7.94,8.07,9.74.45.45.54.27.56-.39.16-3.67.4-11.53.21-13.3-.15-1.04-.57-1.25-3.3-.83-1.22.21-1.62-1.14-.39-1.6.7-.28,2.61-.78,4.35-1.36,1.07-.36,2.24-.85,3.22-1.18,1.43-.48,1.8.93.67,1.56-1.77,1.09-1.84,1.46-2,2.45-.32,2.73-.8,13.75-1.02,18.28-.1,1.17-.28,2.42-.9,2.63-.53.18-1.12-.52-1.13-.56-1.93-2.38-7.99-9.67-9.54-11.48-.43-.4-.54-.27-.61.25-.23,2.85-.91,13.73-1.14,14.51-.12.68-.19,1.5-.82,1.71-.45.15-.94-.43-1.62-1.44-1.27-1.71-7.62-10.19-10.39-13.57-1.5-1.83-1.84-1.96-3.88-1.68-1.46.24-1.83-1.17-.4-1.65,1.25-.42,2.69-.85,3.94-1.27,1.2-.4,3.48-1.31,4.23-1.56,1.43-.48,1.89.76.63,1.57-1.96,1.25-1.99,1.61-1.47,2.28,1.86,2.9,6.07,8.38,8.02,10.94Z"/>
      <path class="cls-1" d="m165,39.62c2.8-.35,4.11-1.64,5.02-2.32,1.34-1.06,1.92.19.9,1.5-.62.74-3.24,3.67-7.77,4.23-5.41.67-9.77-3.58-10.55-9.92-.56-4.52,1.12-7.81,2.86-9.82,1.5-1.65,3.64-3.15,6.2-3.46,5.46-.67,8.06,3.55,8.47,6.44.3.11.55.22.6.64.1.84-.75,1.56-1.57,1.9-1.8.74-4.12,1.55-13.03,2.65.86,6.19,4.35,8.75,8.87,8.19Zm-8.73-10.48c.29.01,1.18-.05,1.74-.12,4.38-.54,7.35-1.1,8.44-1.47.18-.12.2-.31.17-.54-.58-3.57-3.65-5-6.21-4.68-2.47.31-4.46,2.25-4.46,6.42.03.28.09.37.33.39Z"/>
      <path class="cls-1" d="m184.31,39.68c1.41.21,1.34,1.67-.16,1.69-.94.02-2.63-.05-4.09-.03-2.02.03-2.87.14-4.42.17-1.36.02-1.57-1.43-.17-1.69,2.01-.41,2.19-.88,2.37-1.92.08-.61.11-1.65.05-5.36l-.29-17.91c-.06-3.62-.07-4.56-.18-5.5-.21-1.27-.59-1.5-2.9-1.97-1.04-.22-1.1-1.3.02-1.55,2.3-.46,3.93-1.05,5-1.59.47-.24.84-.48,1.17-.49.56,0,.85.46.59,1.31-.13.61-.25,1.74-.21,4.33l.39,24.02c.05,3.15.11,3.99.17,4.6.11,1.08.4,1.5,2.66,1.88Z"/>
      <path class="cls-1" d="m206.9,22.14c.42.47.7.93.61,1.68-.11.93-.74,1.95-1.07,2.34-.44.56-1.11,1.06-1.56-.04-.51-1.29-1.95-3.25-5.31-3.63-3.6-.41-6.4,1.77-7.05,7.47-.81,7.1,3.34,9.65,6.66,10.03,1.91.22,3.52-.17,5.7-1.43,1.42-.83,1.89.45.62,1.58-2.2,1.88-5.19,3.19-9.16,2.74-5.09-.58-8.54-5.94-7.87-11.87.61-5.37,4.44-8.24,6.7-9.36,3.07-1.59,5.86-1.6,7.4-1.42,2.71.31,3.86,1.39,4.32,1.91Z"/>
      <path class="cls-1" d="m232.64,38.13c-1.14,3.98-3.18,6.18-4.98,7.33-1.82,1.24-5.76,3.05-10.32,1.74-6.01-1.72-8.08-7.98-6.54-13.4,1.2-4.2,3.49-6.39,6.36-7.72,2.63-1.16,5.62-1.72,8.88-.79,5.47,1.56,8.14,7.46,6.6,12.83Zm-9.2-11.08c-5.06-1.45-7.55,3.17-8.47,6.38-1.38,4.84-.7,10.5,4.9,12.11,3.62,1.03,7.01-1.61,8.48-6.77,1.15-4.02.73-10.1-4.91-11.72Z"/>
      <path class="cls-1" d="m262.72,42.5c1.67-.1,3.14.45,4.12,1,3.78,2.1,3.93,6.38,1.97,9.91l-4.31,7.77c-.94,1.68-1.24,2.32-1.38,2.68-.33.89-.11,1.07,1.39,2.44.99.93.23,2.01-.96,1.35-.9-.5-1.89-1.15-3.45-2.02-.82-.46-3.25-1.7-3.99-2.11-1.15-.64-.59-1.94.72-1.48,2.01.63,2.57.41,2.9,0,.36-.45,1.05-1.51,2.54-4.18l2.55-4.6c2.33-4.19,1.25-6.51-1.42-7.99-1.64-.91-3.42-1.09-5.34-.65-.17.12-.3.16-.35.24-.06.4-.48,1.35-.82,1.96l-5.22,9.41c-.91,1.64-.88,1.88.76,3.38,1.07.97.31,2.05-.88,1.39-.62-.34-2.58-1.54-3.69-2.16-1.11-.62-2.63-1.35-3.46-1.81-1.23-.68-.69-2.05.7-1.55,2.2.68,2.48.46,3-.27.27-.39.79-1.23,1.68-2.83l3.03-5.47c2.46-4.44,1.47-6.71-1.33-8.26-1.89-1.05-4.19-.88-5.95-.13-.32.09-.41.26-.59.58l-4.22,7.6c-.87,1.56-1.35,2.63-1.56,3.11-.53,1.16-.47,1.62,1.36,3.17.94.73.15,1.96-1.04,1.3-.74-.41-2.71-1.61-3.82-2.23-1.15-.64-2.63-1.35-3.66-1.93-1.19-.66-.55-1.92.68-1.51,2.04.59,2.31.58,3.11-.48.51-.63,1.22-2.01,2.09-3.57l3.35-6.04c.5-.9.94-1.68,1.13-2.33.21-.47.21-1.06-1.2-2.49-.48-.59-.15-1.37.68-1.23,2.22.26,3.42.23,4.43.15.47-.06.84-.07,1.13.09s.37.58.23,1.04c-.19.54-.78,1.88-1.37,2.95.66-.12,2.26-.3,4.46-.59,1.08-.1,2.47-.19,4.44.91,2.47,1.37,3.16,3.8,2.9,6.02,1.15-.22,3.13-.41,4.65-.54Z"/>
      <path class="cls-1" d="m275.5,75.55c2.12,1.86,3.95,1.98,5.07,2.21,1.68.29,1.13,1.56-.53,1.66-.96.03-4.89.01-8.31-3-4.09-3.6-3.81-9.68.42-14.48,3.01-3.42,6.58-4.35,9.25-4.38,2.23.03,4.77.63,6.71,2.34,4.13,3.63,2.69,8.39.8,10.6.12.29.2.55-.08.87-.56.63-1.67.47-2.46.09-1.75-.85-3.89-2.05-10.63-7.98-4.06,4.75-3.66,9.06-.24,12.07Zm2.04-13.48c.18.22.82.85,1.24,1.22,3.31,2.92,5.7,4.77,6.7,5.34.2.05.36-.06.52-.23,2.29-2.81,1.32-6.04-.62-7.75-1.87-1.65-4.65-1.84-7.77.92-.19.21-.21.31-.07.5Z"/>
      <path class="cls-1" d="m297.72,94.12c-2.3,1.71-2.81,3.08-1.63,4.66.7.94,1.09,1.24,1.89,1.76.81.62.4,1.64-1.34,1.35-1.65-.41-3.17-1.27-4.24-2.71-1.34-1.81-1.84-4.14,2.84-7.61l10.41-7.73-.36-.49c-1.26-1.7-1.62-2.19-1.81-2.52-.16-.29.01-.54.24-.7.42-.31,1.83-.13,2.12.01.24.17.54.42,1.86,2.19,3.39-2.46,4.33-2.92,4.71-3.03.8-.18,2.78.28,3.64.57.89.33.82,1.03-.12,1.26-.56.12-1.51.65-6.14,4.03l1.76,2.38c.64.87,1.38,1.78,1.59,1.98.21.2.15.36-.12.55-.3.22-1.39.74-1.9.59-.3-.01-.68-.37-1.92-2.03l-1.46-1.96-10.04,7.45Z"/>
      <path class="cls-1" d="m318.45,117.99c-3.63,1.98-6.64,2.06-8.71,1.59-2.16-.43-6.21-1.97-8.48-6.14-2.99-5.49.02-11.36,4.98-14.05,3.84-2.09,7-1.99,9.96-.87,2.67,1.06,5.17,2.81,6.79,5.78,2.72,4.99.39,11.03-4.53,13.7Zm1.45-14.33c-2.52-4.62-7.56-3.16-10.49-1.57-4.42,2.4-7.98,6.86-5.2,11.98,1.8,3.3,6.07,3.87,10.77,1.31,3.67-2,7.72-6.56,4.91-11.72Z"/>
      <path class="cls-1" d="m338.99,155.43c1.14,1.22,1.66,2.7,1.87,3.81.81,4.25-2.38,7.1-6.35,7.85l-8.73,1.66c-1.89.36-2.58.54-2.94.65-.9.31-.89.6-.98,2.63-.08,1.35-1.4,1.46-1.65.12-.19-1.02-.32-2.19-.65-3.94-.18-.92-.78-3.58-.93-4.42-.25-1.29,1.11-1.69,1.6-.4.8,1.95,1.33,2.23,1.86,2.23.57-.01,1.84-.16,4.84-.73l5.17-.98c4.71-.89,5.8-3.21,5.23-6.21-.35-1.85-1.35-3.33-2.91-4.52-.2-.06-.31-.13-.4-.11-.34.21-1.34.49-2.03.62l-10.57,2.01c-1.85.35-2.01.52-2.11,2.74-.06,1.45-1.38,1.55-1.63.21-.13-.69-.47-2.97-.7-4.22-.24-1.25-.64-2.89-.82-3.81-.26-1.39,1.13-1.84,1.64-.45.88,2.13,1.23,2.21,2.13,2.13.47-.04,1.45-.18,3.25-.52l6.14-1.17c4.99-.95,6.1-3.17,5.5-6.31-.4-2.12-2.01-3.78-3.71-4.65-.27-.19-.46-.15-.83-.08l-8.54,1.62c-1.75.33-2.89.64-3.39.79-1.23.33-1.55.68-1.57,3.07.03,1.19-1.41,1.37-1.67.03-.16-.83-.49-3.11-.73-4.36-.25-1.29-.64-2.89-.86-4.05-.25-1.34,1.12-1.65,1.59-.45.85,1.94,1.03,2.15,2.36,2.09.81-.01,2.33-.35,4.08-.68l6.79-1.29c1.02-.19,1.89-.36,2.51-.62.5-.14.95-.52,1.15-2.51.15-.75.96-1,1.38-.26,1.22,1.87,2.01,2.78,2.72,3.5.35.32.59.6.65.93.06.32-.21.66-.65.84-.54.2-1.94.61-3.14.84.51.43,1.68,1.55,3.31,3.06.77.76,1.72,1.78,2.15,3.99.53,2.77-.9,4.86-2.77,6.07.91.74,2.32,2.14,3.39,3.23Z"/>
      <path class="cls-1" d="m319.2,175.78c-.03-1.6,1.43-1.67,1.74-.17.46,2.01.84,2.29,2.81,2.26l10.9-.18c.99-.02,1.6-.03,2.11-.13.75-.06.94-.2,1.66-2.1.32-.85,1.35-.92,1.55.21.21,1.27.75,2.67,1.52,3.97.24.42.48.74.49,1.17,0,.47-.32.76-1.02.67-1.13-.12-1.98-.34-6.02-.28l-10.9.18c-2.21.04-2.58.23-2.97,2.4-.21,1.46-1.72,1.48-1.74-.16-.02-1.18.06-2.3.03-4-.02-1.32-.14-3.01-.16-3.85Zm31.59,5.93c-1.5.02-2.88-.89-2.91-2.58-.02-1.46,1.09-2.51,2.59-2.53,1.6-.03,2.84,1.08,2.86,2.59.02,1.17-.95,2.51-2.54,2.53Z"/>
      <path class="cls-1" d="m329.95,194.67c1.4,2.78,3.58,6.14,5.21,8.2.85,1.1,1.17,1.57,1.55,1.62.33.04.53-.45,1.08-2.18.43-1.51,1.91-1.27,1.71.36-.14,1.07-.34,2.66-.47,4.06-.13,1.36-.16,2.77-.28,3.71-.12.93-.43,1.18-.81,1.13-.42-.05-.72-.33-.94-1.21-.24-1.07-.59-2.07-1.54-3.51-1.3-2.06-2.81-4.34-4.37-6.67-3.34,1.71-7.25,4.1-9.57,5.61-2.49,1.72-2.85,2.29-3.24,4.66-.22,1.39-1.64,1.36-1.71-.31-.1-1.1.17-3.2.56-4.81.21-.87.89-1.78,2.93-2.94,1.79-1.01,5.1-2.86,9.2-4.9.2-.07.31-.2.07-.56-.46-.86-.83-1.67-1.25-2.48l-1.21-.15c-3.08-.39-3.92-.45-4.53-.48-1.08-.04-1.54.18-2.24,2.32-.42,1.42-1.85,1.14-1.65-.4.11-.89.42-2.6.61-4.04.25-2.01.26-2.81.45-4.3.18-1.4,1.65-1.4,1.7.07.11,2.1.56,2.3,1.57,2.57.6.12,1.61.35,5.3.81l17.77,2.26c3.59.46,4.52.57,5.42.59,1.32.07,1.56-.37,2.37-2.59.42-1.04,1.49-.95,1.58.25.13,2.34.48,4.04.86,5.18.18.45.36.9.32,1.23-.07.56-.62.77-1.38.39-.59-.22-1.69-.5-4.25-.82l-20.8-2.64Z"/>
      <path class="cls-1" d="m315.57,212.5c.41-1.54,1.83-1.22,1.72.31-.11,2.06.18,2.43,2.09,2.94l10.54,2.8c.95.25,1.54.41,2.07.45.74.15.96.06,2.17-1.56.54-.73,1.55-.51,1.44.63-.14,1.27,0,2.77.38,4.24.12.47.26.85.15,1.26-.12.45-.51.64-1.17.37-1.05-.43-1.81-.87-5.72-1.91l-10.54-2.8c-2.14-.57-2.55-.48-3.51,1.5-.6,1.35-2.06.96-1.63-.63.3-1.14.68-2.2,1.12-3.84.34-1.27.68-2.93.9-3.75Zm28.78,14.31c-1.45-.39-2.53-1.64-2.1-3.28.37-1.41,1.73-2.12,3.18-1.73,1.54.41,2.44,1.81,2.05,3.27-.3,1.14-1.59,2.15-3.14,1.74Z"/>
      <path class="cls-1" d="m324.62,245.09c.95-2.05,1.51-3.13,1.67-3.37.16-.24.41-.22.71-.08.47.22,1.05,1.42,1.06,1.74-.05.34-.17.8-1.1,2.81,4.65,2.27,6.77,3.72,8.74,7.07,2.3,3.87,2.19,7.65,1.18,9.83-.87,1.88-1.86,2.77-2.85,3.13-.69.25-1.24.1-1.62-.08-.85-.4-1.49-1.37-1.85-2.26-.25-.58.01-1.03.39-1.17,1.61-.45,3.32-1.46,4.14-3.21,1.05-2.26,1.25-5.02-8.98-9.78l-.64-.3-1.13,2.43c-.46.98-.85,1.94-.94,2.36-.05.34-.3.43-.6.29-.3-.14-1.31-.97-1.47-1.51-.13-.27-.04-.69.99-2.91l.81-1.75-10.19-4.74c-1.7-.79-2.88-1.29-3.62-1.58-1.53-.61-1.89-.51-3.21,1.56-.94,1.58-2.33.89-1.54-.82.44-.94.92-1.75,1.87-3.8.81-1.75,1.38-3.19,1.74-3.96.75-1.62,2.07-1,1.64.61-.49,1.95-.17,2.25,1.16,2.97.51.34,1.6.9,3.31,1.69l10.36,4.82Z"/>
      <path class="cls-1" d="m307.83,256.46c-1.46-.94-2.39-1.49-3.23-1.75-1.37-.39-3.44-.49-4.99,1.92-1.66,2.56-.96,5.03-.54,6.37.1.29.33.44.73.69l7.62,4.93c.79.51,1.49.91,1.75,1.02,1.06.52,1.56.45,3.31-1.39.82-.92,2.02-.09,1.27,1.16-1.34,2.16-1.73,3.19-2.02,4.07-.28.77-.37,1.27-.48,1.43-.2.32-.71.49-1.12,0-.34-.33-1.54-1.33-3.95-2.89l-7.3-4.72c-2.01-1.3-3.33-2.04-3.76-1.98-.87.05-1.1.41-1.83,1.79-.42.74-1.31.38-1.46-.61-.19-.91.1-3.79,1.18-5.45.64-.99,2.33-.06,4.36,1.14-.44-2.69-1.13-6.22.58-8.86,1.1-1.7,2.64-2.6,3.86-2.76,1.23-.27,3.19-.17,6.03,1.66l6.51,4.21c.71.46,1.54,1,2.46,1.48.54.29,1.21.39,2.58-.79.86-.73,1.68.08,1.25,1.09-.75,1.59-1.08,2.88-1.3,3.92-.11.43-.14,1.08-.29,1.32-.23.36-.75.47-1.23,0-.5-.61-1.74-1.63-4.27-3.27l-5.72-3.7Z"/>
      <path class="cls-1" d="m293.27,279.5c-.5,3.08-.7,7.07-.58,9.69.05,1.4.03,1.96.3,2.22.24.23.7-.06,2.16-1.13,1.23-.97,2.3.09,1.17,1.29-.74.79-1.83,1.95-2.76,3.02-.9,1.03-1.76,2.15-2.4,2.84-.64.69-1.04.7-1.32.44-.31-.29-.39-.69-.05-1.53.43-1.01.73-2.02.81-3.75.15-2.43.26-5.16.37-7.96-3.71-.58-8.27-.93-11.04-1.07-3.03-.07-3.65.19-5.36,1.87-1,1-2.12.14-1.2-1.26.57-.95,2.01-2.49,3.28-3.56.68-.59,1.77-.92,4.1-.66,2.04.23,5.81.68,10.32,1.43.2.06.37.02.39-.41.14-.97.31-1.84.44-2.74l-.89-.84c-2.26-2.12-2.91-2.67-3.39-3.05-.85-.67-1.35-.75-3.17.57-1.17.9-2.17-.16-1.11-1.29.61-.65,1.87-1.86,2.86-2.92,1.38-1.47,1.86-2.12,2.89-3.22.96-1.03,2.16-.17,1.33,1.05-1.14,1.77-.89,2.19-.24,3,.41.45,1.1,1.23,3.81,3.77l13.06,12.24c2.64,2.47,3.33,3.12,4.04,3.66,1.02.83,1.48.62,3.43-.71.94-.6,1.77.11,1.13,1.13-1.27,1.97-1.98,3.55-2.34,4.7-.12.47-.24.94-.46,1.18-.39.41-.96.26-1.35-.49-.35-.52-1.08-1.39-2.96-3.16l-15.29-14.33Z"/>
      <path class="cls-1" d="m272.97,296.37c-1.04-1.4-1.72-2.24-2.41-2.77-1.15-.84-3.05-1.66-5.35.05-2.45,1.82-2.66,4.38-2.73,5.78-.01.3.16.53.44.9l5.41,7.28c.56.75,1.08,1.37,1.28,1.57.81.86,1.3.96,3.58-.15,1.09-.58,1.92.62.78,1.53-2.01,1.55-2.74,2.39-3.31,3.11-.53.63-.79,1.06-.94,1.17-.3.22-.84.21-1.05-.39-.21-.43-.98-1.79-2.69-4.09l-5.19-6.98c-1.43-1.92-2.4-3.07-2.83-3.17-.84-.26-1.18,0-2.34,1.03-.65.54-1.36-.1-1.15-1.08.14-.92,1.42-3.52,3.01-4.7.94-.7,2.21.76,3.68,2.59.53-2.68,1.12-6.22,3.64-8.1,1.62-1.21,3.38-1.52,4.58-1.24,1.25.18,3.05.95,5.07,3.67l4.63,6.22c.5.68,1.09,1.47,1.79,2.24.4.46.99.78,2.7.16,1.06-.38,1.55.66.79,1.46-1.26,1.23-2.02,2.32-2.59,3.21-.26.37-.51.97-.74,1.13-.34.25-.87.17-1.15-.44-.26-.74-1.06-2.14-2.86-4.55l-4.07-5.47Z"/>
      <path class="cls-1" d="m237.37,320.75c-1.84-3.71-1.81-6.71-1.25-8.77.51-2.14,2.21-6.13,6.46-8.24,5.6-2.78,11.35.46,13.85,5.51,1.94,3.92,1.72,7.07.49,9.99-1.17,2.62-3,5.06-6.03,6.56-5.1,2.53-11.04-.04-13.52-5.05Zm14.27,2c4.72-2.34,3.45-7.43,1.97-10.42-2.23-4.51-6.55-8.24-11.77-5.65-3.37,1.67-4.1,5.91-1.72,10.71,1.86,3.75,6.26,7.97,11.52,5.36Z"/>
      <path class="cls-1" d="m226.86,323.28c-2,2.39-4.21,5.72-5.45,8.04-.67,1.22-.98,1.7-.87,2.06.09.32.63.31,2.43.13,1.56-.21,1.93,1.25.35,1.71-1.04.3-2.57.75-3.92,1.18-1.3.42-2.61.95-3.51,1.21-.9.26-1.25.07-1.36-.29-.12-.41.02-.79.74-1.34.89-.65,1.66-1.36,2.61-2.81,1.37-2.01,2.86-4.3,4.39-6.65-2.9-2.39-6.64-5.03-8.95-6.56-2.57-1.6-3.23-1.71-5.56-1.13-1.37.35-1.9-.97-.39-1.7.97-.53,3-1.11,4.64-1.39.88-.16,1.99.11,3.87,1.52,1.63,1.24,4.65,3.55,8.15,6.5.14.15.3.21.54-.16.61-.76,1.2-1.42,1.78-2.13l-.34-1.17c-.86-2.98-1.14-3.78-1.36-4.35-.39-1.01-.78-1.34-3.02-1.13-1.46.18-1.78-1.25-.29-1.68.86-.25,2.55-.64,3.95-1.05,1.94-.56,2.68-.87,4.13-1.29,1.35-.39,1.94.96.61,1.59-1.88.94-1.89,1.43-1.73,2.46.12.6.32,1.62,1.36,5.19l4.98,17.2c1.01,3.48,1.27,4.38,1.61,5.21.46,1.24.96,1.29,3.32,1.14,1.12-.03,1.46,1,.4,1.55-2.09,1.05-3.52,2.05-4.41,2.84-.34.34-.68.69-1,.78-.54.16-.96-.26-.91-1.11-.03-.63-.21-1.75-.93-4.23l-5.83-20.14Z"/>
      <path class="cls-1" d="m194.26,332.92c.72,4.6,3.67,5.59,5.95,5.33,1.82-.21,2.63-.96,2.99-1.95.37-.94.45-2.28.75-3.35.26-1.02,1.3-1.43,2.07-.09.4.62.63,1.35.71,2.05.06.56-.03,1-.49,1.48-2.17,2.14-6.07,4.38-7.71,4.57-5.56.64-7.15-3.82-7.5-6.85s-1.03-10.29-1.1-10.85c-.05-.47-.14-.79-.25-.92-.51-.7-1.85-.5-2.74-.4-.98.16-1.12-1.1-.2-1.77.99-.82,2.71-1.49,4.31-1.63,1.5-.12,1.84,1.16,2.2,3.49,3.04-3.23,5.39-4.54,7.54-4.79,1.87-.21,5.17.97,5.66,5.22.49,4.3-5.35,7.38-10.63,7.98-.47.05-1.13.08-1.83.11l.27,2.38Zm-.55-4.81c.03.28.17.26.36.29.76.05,1.75.04,3.71-.24,3.22-.42,5.19-2.16,4.92-4.58-.21-1.82-1.38-3.34-3.99-3.04-1.45.17-3.13.74-4.92,3.31-.33.46-.49.72-.37,1.75l.29,2.52Z"/>
      <path class="cls-1" d="m181.98,346.43c-2.81,2.3-3.58,3.61-3.61,4.97-.02,1.22.58,1.89,2.21,3,.37.24.6.76.21,1.51-.53.79-1.67,1.24-2.75,1.22-1.32-.02-2.89-1.32-2.85-3.9.07-4.09,3.4-6.71,5.3-7.67,1.66-.87,2.44.09,1.49.87Z"/>
      <path class="cls-1" d="m137.98,325.55c-1.86-1.42-3.61-3.44-2.87-6.21.6-2.27,2.16-4.1,5.24-5.07,1.8-.54,3.76-.41,5.26-.01,1.91.51,3.05,1.35,3.49,1.71.24.21.44.36.81.07.66-.46,1.88-.47,1.54.8-.42,1.59-.75,3.35-1.12,5.68-.24,1.44-1.72,1.34-1.77-.13-.02-.3-.12-1.39-.16-1.94-.32-2.08-1.6-3.68-4.37-4.42-2.63-.7-4.28.18-4.93,2.63-.44,1.64.21,2.88,1.51,4,1.17.9,2.73,1.99,3.91,2.84,1.54,1.14,3.69,3.32,2.86,6.45-.47,1.77-1.74,3.23-3.76,4.06-2.19.92-4.37.69-5.91.28-1.32-.35-2.67-1.1-2.87-1.3-.29-.18-.35-.14-.51-.09-.38.14-.7.45-1.02.55-.65.26-1.46,0-1.13-.69.21-.43,1.18-2.6,1.98-5.6.4-1.5,1.87-1.35,1.77-.06-.06.76-.07,1.54.16,2.52.3,1.44,1.57,2.51,3.39,2.99,2.68.71,3.86-.63,4.27-2.17.56-2.09-.59-3.27-2.13-4.41l-3.62-2.47Z"/>
      <path class="cls-1" d="m97.69,281.96c1.65-1.87,1.42-2.32-.41-4.5-1.01-1.2-.04-2.29,1.12-1.27l1.41,1.25c2.92,2.58,5.07,3.98,5.78,4.61.99.87.15,1.96-.95,1.36-2.06-1.01-2.35-.82-3.14-.14-.91.89-2.38,2.48-4.68,5.08l-10.31,11.65c-1.31,1.48-2.21,2.57-2.67,3.16-.68.91-.85,1.32.63,3.19.58.76.05,1.43-.85,1.32-.81-.22-4.53-1.12-5.45-1.93-.63-.56.25-1.91,1.93-3.88-5.77-.71-7.45-1.01-9.5-2.82-2.99-2.65-3.37-8.25.43-12.55,4.02-4.54,8.47-4.68,11.35-4.46,2.91.25,5.77,1.28,7.85,3.12.7.62,1.56,1.64,2.11,2.87l5.36-6.05Zm-8.1,9.15c.25-.28.31-.42.26-.71-.25-1.42-1.43-3.21-2.98-4.58-3.94-3.49-8.03-2.27-11.58,1.74-3.96,4.47-3.1,8.61-.64,10.79,1.58,1.4,3.89,2.13,6.37,1.87.4.04.62-.14,1.15-.74l7.41-8.38Z"/>
      <path class="cls-1" d="m54.71,265.02c3.25-2.56,6.2-3.15,8.33-3.03,2.2.06,6.45.9,9.39,4.63,3.87,4.91,1.88,11.2-2.55,14.69-3.43,2.71-6.56,3.14-9.67,2.53-2.81-.6-5.56-1.9-7.66-4.56-3.52-4.47-2.23-10.81,2.16-14.27Zm.97,14.37c3.26,4.14,7.98,1.85,10.6-.21,3.95-3.11,6.72-8.1,3.11-12.68-2.33-2.95-6.63-2.8-10.84.52-3.29,2.59-6.51,7.76-2.88,12.38Z"/>
      <path class="cls-1" d="m37.61,250.84c.86-.49,1.82-.7,2.49-.65.4-.06,1.06.05,1.29.46.21.37.17.5-.18,1.5-.27.96-.35,1.76.2,2.75.58,1.02,1.7,1.96,3.95,2.41.34.02.44.02.73-.14l8.06-4.55c1.02-.58,1.82-1.08,2.41-1.47,1.14-.75,1.1-1.21.21-3.84-.45-1.37.79-1.85,1.44-.7.49.86,1.21,2.34,2.21,4.1.99,1.76,1.68,2.78,2.23,3.76.62,1.1-.45,1.88-1.36.93-1.42-1.46-1.63-1.45-2.66-.98-.76.27-1.62.76-2.65,1.33l-6.71,3.79c-1.35.76-2.33,1.32-2.63,1.65-.59.39-.65.96-.26,2.79.12.79-.57,1.19-1.23.69-1.23-.93-2.71-1.93-3.99-2.66-.33-.19-.5-.31-.64-.56-.19-.33.03-.72.43-1.05.5-.45,1.95-1.42,3.09-2.07-5.27-1.5-6.62-2.36-7.36-3.67-.58-1.02-.76-2.87.92-3.81Z"/>
      <path class="cls-1" d="m45.76,236.04c2.64-1.11,3.46-2.32,2.7-4.14-.45-1.08-.77-1.46-1.41-2.16-.64-.8,0-1.69,1.62-.99,1.51.8,2.77,2,3.46,3.64.87,2.08.8,4.46-4.58,6.71l-11.96,5.02.24.56c.82,1.95,1.05,2.51,1.16,2.88.08.32-.14.52-.4.63-.48.2-1.81-.31-2.05-.52-.2-.22-.43-.53-1.28-2.57-3.88,1.57-4.9,1.8-5.3,1.82-.82-.01-2.63-.93-3.4-1.43-.79-.54-.55-1.2.42-1.19.57.02,1.62-.27,6.93-2.44l-1.14-2.73c-.42-1-.92-2.06-1.07-2.3-.15-.24-.06-.38.24-.51.35-.15,1.52-.38,1.99-.12.29.08.58.52,1.38,2.43l.95,2.25,11.53-4.83Z"/>
      <path class="cls-1" d="m29.75,228.59c.66,2.16.97,3.34,1.01,3.62.04.28-.16.44-.47.54-.49.15-1.73-.36-1.95-.58-.19-.29-.41-.71-1.06-2.82-4.97,1.42-7.52,1.76-11.23.58-4.29-1.34-6.75-4.23-7.45-6.52-.6-1.98-.47-3.3.03-4.24.34-.65.86-.9,1.26-1.02.9-.27,2.02.02,2.89.44.57.27.68.78.49,1.13-.9,1.41-1.5,3.31-.93,5.15.73,2.38,2.43,4.57,13.22,1.27l.67-.21-.78-2.56c-.32-1.03-.66-2.01-.88-2.39-.19-.29-.06-.52.25-.62s1.62-.15,2.11.14c.28.11.49.49,1.21,2.83l.56,1.84,10.74-3.29c1.8-.55,3-.97,3.75-1.25,1.55-.57,1.75-.88,1.35-3.31-.36-1.81,1.14-2.22,1.69-.42.3.99.49,1.92,1.15,4.07.56,1.84,1.11,3.3,1.35,4.11.52,1.71-.87,2.13-1.62.64-.94-1.78-1.38-1.79-2.85-1.44-.61.09-1.79.4-3.59.95l-10.92,3.34Z"/>
      <path class="cls-1" d="m29.43,193.55c4.08-.66,6.95.26,8.75,1.4,1.9,1.12,5.2,3.92,5.96,8.61.99,6.17-3.8,10.7-9.37,11.6-4.32.7-7.26-.45-9.68-2.49-2.16-1.89-3.94-4.36-4.48-7.7-.9-5.61,3.3-10.53,8.82-11.42Zm-6.14,13.03c.84,5.2,6.07,5.5,9.37,4.96,4.96-.8,9.81-3.82,8.88-9.57-.6-3.71-4.44-5.66-9.73-4.81-4.13.67-9.46,3.62-8.53,9.42Z"/>
      <path class="cls-1" d="m39.68,179.92c.19-1.42,1.65-1.36,1.7.14.03.94-.02,2.63.02,4.09.06,2.02.18,2.86.22,4.41.04,1.36-1.41,1.59-1.69.19-.43-2.01-.91-2.18-1.95-2.34-.61-.08-1.65-.09-5.36.01l-17.9.51c-3.62.1-4.56.13-5.49.25-1.26.22-1.49.61-1.94,2.92-.21,1.04-1.28,1.12-1.55,0-.49-2.29-1.1-3.92-1.65-4.98-.25-.46-.49-.83-.5-1.16-.02-.56.45-.86,1.3-.6.61.12,1.75.23,4.33.16l24.01-.69c3.15-.09,3.99-.16,4.6-.23,1.08-.12,1.49-.42,1.85-2.69Z"/>
      <path class="cls-1" d="m10.4,167.69c1.5.09,2.81,1.1,2.71,2.79-.08,1.45-1.27,2.42-2.77,2.33-1.6-.09-2.75-1.29-2.66-2.79.07-1.17,1.13-2.43,2.72-2.34Zm31.06,8.25c-.09,1.6-1.55,1.56-1.74.04-.31-2.04-.66-2.35-2.64-2.46l-10.89-.63c-.99-.06-1.6-.09-2.12-.03-.75,0-.95.13-1.81,1.97-.38.83-1.41.81-1.53-.32-.11-1.28-.55-2.72-1.22-4.07-.21-.44-.43-.78-.4-1.2.03-.47.37-.73,1.07-.6,1.12.21,1.95.49,5.98.72l10.89.63c2.21.13,2.59-.04,3.14-2.17.32-1.44,1.82-1.35,1.73.29-.07,1.17-.23,2.29-.32,3.98-.08,1.31-.08,3.01-.13,3.85Z"/>
      <path class="cls-1" d="m34.12,140.66c4.06.78,6.43,2.63,7.73,4.31,1.39,1.7,3.54,5.47,2.64,10.13-1.18,6.14-7.24,8.75-12.78,7.68-4.29-.83-6.67-2.91-8.24-5.66-1.38-2.52-2.2-5.45-1.56-8.77,1.08-5.58,6.71-8.76,12.2-7.7Zm-10.23,10.13c-1,5.17,3.82,7.25,7.1,7.88,4.94.95,10.52-.22,11.63-5.94.71-3.69-2.22-6.84-7.48-7.86-4.11-.79-10.13.15-11.24,5.92Z"/>
      <path class="cls-1" d="m44.31,114.27c1.71-1.59,4-2.98,6.61-1.78,2.14.98,3.67,2.82,4.12,6.02.23,1.86-.23,3.77-.88,5.18-.82,1.79-1.84,2.78-2.27,3.15-.25.2-.43.37-.2.79.34.72.15,1.93-1.05,1.38-1.5-.69-3.18-1.3-5.41-2.07-1.38-.48-1.03-1.92.43-1.72.3.03,1.39.12,1.94.17,2.1.03,3.9-.95,5.09-3.56,1.14-2.48.55-4.25-1.76-5.3-1.54-.7-2.87-.28-4.2.82-1.08,1-2.42,2.35-3.46,3.38-1.38,1.33-3.89,3.08-6.84,1.73-1.67-.76-2.9-2.26-3.37-4.39-.54-2.32.06-4.42.73-5.87.57-1.24,1.54-2.45,1.76-2.6.22-.26.2-.32.17-.49-.08-.4-.32-.77-.37-1.1-.15-.69.25-1.44.87-1,.39.28,2.37,1.6,5.19,2.89,1.41.65,1.02,2.07-.23,1.75-.74-.19-1.5-.33-2.51-.27-1.47.05-2.74,1.12-3.52,2.83-1.16,2.52-.04,3.91,1.42,4.58,1.96.9,3.32-.03,4.71-1.36l3.05-3.15Z"/>
      <path class="cls-1" d="m35.6,90.39c1.29.77,1.97,2.28,1.1,3.73-.75,1.25-2.25,1.55-3.54.78-1.37-.82-1.84-2.42-1.06-3.71.61-1.01,2.13-1.63,3.5-.8Zm23.67,21.74c-.82,1.37-2.1.66-1.56-.78.68-1.95.5-2.39-1.19-3.4l-9.35-5.62c-.85-.51-1.37-.82-1.86-1.01-.67-.35-.9-.32-2.52.9-.72.56-1.63.06-1.21-1,.49-1.18.78-2.66.81-4.17.02-.48-.02-.89.2-1.25.24-.4.67-.47,1.23-.03.89.7,1.5,1.34,4.96,3.42l9.35,5.62c1.89,1.14,2.31,1.17,3.79-.46.95-1.13,2.24-.35,1.39,1.06-.61,1.01-1.27,1.93-2.14,3.38-.68,1.13-1.47,2.63-1.91,3.35Z"/>
      <path class="cls-1" d="m63.61,93.28c2.3,1.71,3.76,1.79,4.94.2.7-.94.87-1.41,1.13-2.32.36-.96,1.45-.86,1.68.89.09,1.7-.3,3.41-1.36,4.84-1.34,1.81-3.42,2.96-8.11-.5l-10.43-7.72-.36.49c-1.26,1.7-1.62,2.19-1.88,2.47-.23.24-.52.14-.74-.02-.42-.31-.66-1.72-.6-2.03.09-.28.24-.64,1.56-2.42-3.33-2.53-4.05-3.29-4.27-3.63-.41-.71-.54-2.74-.51-3.65.06-.95.75-1.09,1.24-.25.28.5,1.06,1.25,5.64,4.7l1.76-2.38c.64-.87,1.3-1.84,1.44-2.1.13-.25.3-.25.56-.05.3.22,1.11,1.11,1.12,1.65.08.29-.15.76-1.39,2.42l-1.45,1.96,10.05,7.44Z"/>
      <path class="cls-1" d="m79.76,80.76c1.95-2.03,2.15-3.87,2.43-4.97.37-1.67,1.61-1.06,1.64.6-.01.96-.2,4.89-3.36,8.18-3.78,3.93-9.84,3.39-14.45-1.04-3.29-3.16-4.06-6.77-3.98-9.43.12-2.23.84-4.74,2.63-6.6,3.81-3.96,8.5-2.33,10.63-.35.3-.11.56-.18.87.12.61.59.4,1.69-.02,2.46-.93,1.71-2.22,3.8-8.44,10.27,4.57,4.26,8.89,4.04,12.05.76Zm-13.38-2.62c.23-.17.88-.78,1.27-1.19,3.06-3.19,5.01-5.48,5.62-6.46.06-.2-.04-.37-.21-.53-2.71-2.41-5.98-1.58-7.77.29-1.73,1.8-2.04,4.56.59,7.8.2.2.3.23.5.09Z"/>
    </g>
    <path class="cls-1" d="m119.16,296.6c-4.04,10.86-3.46,13,5.46,20.38-10.86-4.04-13-3.46-20.38,5.46,4.04-10.86,3.46-13-5.46-20.38,10.86,4.04,13,3.46,20.38-5.46Z"/>
  </g>
</svg>